M48
;Layer_Color=9474304
;FILE_FORMAT=4:4
METRIC,LZ
;TYPE=PLATED
T1F00S00C0.1800
T2F00S00C0.6500
T3F00S00C0.8500
T4F00S00C0.9000
T5F00S00C0.9500
;TYPE=NON_PLATED
T6F00S00C0.5800
T8F00S00C0.8500
%
T01
X00392176Y0083312
X00399288Y00869696
X0040229Y00885698
X00408178Y00919226
X00410266Y00921314
X00442976Y00902462
X00498094Y00905232
X00494034Y0091084
X00489994Y00916035
X0048129Y0093911
X0047371Y00948436
X00459232Y0095758
X0049022Y00974852
X00499618Y00971042
X00501142Y0097917
X00514933Y00976
X00511048Y0097155
X00515112Y0095885
X0053022
X0054522Y00979678
X00561848Y00973328
X00555244Y00935228
X00544322Y00921258
X00546862Y00870204
X00555752Y00865902
X00581406Y0089535
X00507492Y00901192
X00499872Y0088773
X004953Y00997204
X00489498Y01008126
X00489712Y01018032
X00494284Y01022096
X00492022Y01026136
X00512154Y01029687
X00525272Y01025398
X00530805Y01033804
X00533146Y01037844
X0053721Y0105115
X005533
X00553212Y01041146
X00552694Y01025144
X00581428Y0100203
X00601472Y01028524
X0061722Y00974598
X00549148Y01078992
X00540258Y0110617
X0051497Y01111219
X00506984Y01097534
X00505714Y0109093
X00496156Y01093454
X00492116Y0110871
X00511048Y01078672
X00451612Y01134329
X0047241Y0118745
X0054922Y01164519
X0059182Y00819912
X00587756Y01223264
X00579374Y0124109
X00544068Y01234694
X00540766Y01246886
X00505714Y01246124
X0055526Y0119507
T02
X006134Y0078409
X0034472
X0034422Y0080959
Y0083459
X0034472Y0085984
Y0088559
Y0091084
X0034422Y0093659
X0034472Y0096184
Y0098734
Y0101234
Y0103784
X0034422Y0106459
X0034472Y0108834
Y0111409
Y0113934
X0034522Y0116484
X0034497Y0119034
X0061365
X006139Y0116484
X006134Y0113934
Y0111409
Y0108834
X006129Y0106459
X006134Y0103784
Y0101234
Y0098734
Y0096184
X006129Y0093659
X006134Y0091084
Y0088559
Y0085984
X006129Y0083459
Y0080959
X006134Y0121534
X0061315Y0124109
X006134Y0126659
X0034472
X0034447Y0124109
X0034472Y0121534
T03
X0041123Y0105218
X0045598Y0105243
T04
X0039985Y0079222
X0042535
X0045085
Y0081773
X0042535
X0039985
T05
X0048147Y0082097
X0050697Y0082072
X0053247
X0055822
T06
X0045666Y0124097
X0050116
T08
X0041098Y0098093
X0045598
M30
