G04 Layer_Color=13382451*
%FSLAX44Y44*%
%MOMM*%
G71*
G01*
G75*
%ADD17C,0.1000*%
%ADD18C,0.2500*%
%ADD25C,0.2000*%
%ADD28C,0.8000*%
D17*
X462691Y933472D02*
Y948672D01*
Y933472D02*
X494891D01*
Y948672D01*
X462691D02*
X494891D01*
X402399Y1147700D02*
X410400D01*
X402399Y1163700D02*
X410400D01*
X402399Y1147700D02*
Y1163700D01*
X410400Y1147700D02*
Y1163700D01*
X448119Y1147700D02*
X456120D01*
X448119Y1163700D02*
X456120D01*
X448119Y1147700D02*
Y1163700D01*
X456120Y1147700D02*
Y1163700D01*
X490029Y1147700D02*
X498030D01*
X490029Y1163700D02*
X498030D01*
X490029Y1147700D02*
Y1163700D01*
X498030Y1147700D02*
Y1163700D01*
X413789Y1199930D02*
X421790D01*
X413789Y1215930D02*
X421790D01*
X413789Y1199930D02*
Y1215930D01*
X421790Y1199930D02*
Y1215930D01*
X527430Y1137730D02*
Y1145731D01*
X511430Y1137730D02*
Y1145731D01*
X527430D01*
X511430Y1137730D02*
X527430D01*
X510160Y1183449D02*
Y1191450D01*
X526160Y1183449D02*
Y1191450D01*
X510160Y1183449D02*
X526160D01*
X510160Y1191450D02*
X526160D01*
X468250Y1093279D02*
Y1101280D01*
X484250Y1093279D02*
Y1101280D01*
X468250Y1093279D02*
X484250D01*
X468250Y1101280D02*
X484250D01*
X529970Y1093280D02*
Y1101281D01*
X513970Y1093280D02*
Y1101281D01*
X529970D01*
X513970Y1093280D02*
X529970D01*
X538670Y1129920D02*
Y1145920D01*
X530669Y1129920D02*
Y1145920D01*
X538670D01*
X530669Y1129920D02*
X538670D01*
X438530Y1137730D02*
Y1145731D01*
X422530Y1137730D02*
Y1145731D01*
X438530D01*
X422530Y1137730D02*
X438530D01*
X437260Y1093280D02*
Y1101281D01*
X421260Y1093280D02*
Y1101281D01*
X437260D01*
X421260Y1093280D02*
X437260D01*
X566800Y923100D02*
Y931101D01*
X550800Y923100D02*
Y931101D01*
X566800D01*
X550800Y923100D02*
X566800D01*
X565530Y874840D02*
Y882841D01*
X549530Y874840D02*
Y882841D01*
X565530D01*
X549530Y874840D02*
X565530D01*
X497460Y923099D02*
Y931100D01*
X513460Y923099D02*
Y931100D01*
X497460Y923099D02*
X513460D01*
X497460Y931100D02*
X513460D01*
X419480Y873570D02*
Y881571D01*
X403480Y873570D02*
Y881571D01*
X419480D01*
X403480Y873570D02*
X419480D01*
X455550Y873569D02*
Y881570D01*
X471550Y873569D02*
Y881570D01*
X455550Y873569D02*
X471550D01*
X455550Y881570D02*
X471550D01*
X419480Y923100D02*
Y931101D01*
X403480Y923100D02*
Y931101D01*
X419480D01*
X403480Y923100D02*
X419480D01*
X454280Y923099D02*
Y931100D01*
X470280Y923099D02*
Y931100D01*
X454280Y923099D02*
X470280D01*
X454280Y931100D02*
X470280D01*
X514730Y873570D02*
Y881571D01*
X498730Y873570D02*
Y881571D01*
X514730D01*
X498730Y873570D02*
X514730D01*
X523770Y1040170D02*
Y1048171D01*
X507770Y1040170D02*
Y1048171D01*
X523770D01*
X507770Y1040170D02*
X523770D01*
X522900Y991970D02*
Y999971D01*
X506900Y991970D02*
Y999971D01*
X522900D01*
X506900Y991970D02*
X522900D01*
X485520Y1137730D02*
Y1145731D01*
X469520Y1137730D02*
Y1145731D01*
X485520D01*
X469520Y1137730D02*
X485520D01*
X389579Y1199930D02*
X397580D01*
X389579Y1215930D02*
X397580D01*
X389579Y1199930D02*
Y1215930D01*
X397580Y1199930D02*
Y1215930D01*
X548220Y1180990D02*
Y1188991D01*
X564220Y1180990D02*
Y1188991D01*
X548220D02*
X564220D01*
X548220Y1180990D02*
X564220D01*
X556069Y1129920D02*
X564070D01*
X556069Y1145920D02*
X564070D01*
X556069Y1129920D02*
Y1145920D01*
X564070Y1129920D02*
Y1145920D01*
D18*
X521910Y1239470D02*
Y1298220D01*
X435910D02*
X521910D01*
X435910D02*
X436160Y1297970D01*
Y1239220D02*
Y1297970D01*
Y1239220D02*
X522160D01*
X472220Y1073650D02*
X562220D01*
X472220Y983651D02*
Y1073650D01*
Y983651D02*
X560471D01*
X562220D01*
X562720Y984151D01*
Y1073150D01*
X331720Y772090D02*
X332470Y771340D01*
X331720Y772090D02*
Y1278590D01*
X355720Y1279340D02*
X356470Y1278590D01*
X332470Y1279340D02*
X355720D01*
X331720Y1278590D02*
X332470Y1279340D01*
Y771340D02*
X355720D01*
X356470Y772090D01*
Y1278590D01*
X600400Y772090D02*
X601150Y771340D01*
X600400Y772090D02*
Y1278590D01*
X624400Y1279340D02*
X625150Y1278590D01*
X601150Y1279340D02*
X624400D01*
X600400Y1278590D02*
X601150Y1279340D01*
Y771340D02*
X624400D01*
X625150Y772090D01*
Y1278590D01*
D25*
X402290Y879371D02*
X552291D01*
Y924370D01*
X402290D02*
X552291D01*
X402290Y879371D02*
Y924370D01*
X540260Y1217880D02*
Y1242880D01*
Y1217880D02*
X570260D01*
Y1242880D01*
X540260D02*
X570260D01*
X401980Y977180D02*
Y1055930D01*
X402480Y1056430D01*
X463980D01*
Y977430D02*
Y1056430D01*
X463730Y977180D02*
X463980Y977430D01*
X401980Y977180D02*
X463730D01*
X469970Y838720D02*
X570720D01*
X469470Y838220D02*
X469970Y838720D01*
X469470Y773720D02*
Y838220D01*
Y773720D02*
X469720Y773970D01*
X570720D01*
Y838720D01*
X463351Y779680D02*
Y830430D01*
X392950D02*
X463351D01*
X393700Y779680D02*
X463351D01*
X387950Y830430D02*
X392950D01*
X387750Y811680D02*
Y830230D01*
Y779730D02*
Y830230D01*
Y779730D02*
X387800Y779680D01*
X393700D01*
D28*
X555220Y1066150D02*
G03*
X555220Y1066150I-250J0D01*
G01*
M02*
