G04 Layer_Color=65535*
%FSLAX44Y44*%
%MOMM*%
G71*
G01*
G75*
%ADD25C,0.2000*%
%ADD26C,0.1600*%
%ADD27C,0.0800*%
D25*
X392540Y877120D02*
X562040D01*
Y926120D01*
X393790D02*
X562040D01*
X392540D02*
X393790D01*
X392540Y877120D02*
Y926120D01*
X432660Y1227970D02*
X525160D01*
X432660D02*
Y1300220D01*
X525160D01*
Y1227970D02*
Y1300220D01*
X469970Y1077650D02*
X565220D01*
X469970Y980150D02*
Y1077650D01*
Y980150D02*
X565220D01*
Y1077650D01*
X572260Y1211880D02*
Y1248130D01*
X538260D02*
X572260D01*
X538260Y1211880D02*
X572260D01*
X538260D02*
Y1248130D01*
X400230Y1061930D02*
X465980D01*
X400230Y971930D02*
Y1061930D01*
Y971930D02*
X465730D01*
X465980Y972180D01*
Y1061930D01*
X329720Y1281090D02*
X358470D01*
X329720Y770090D02*
X358470D01*
Y1281090D01*
X329720Y770090D02*
Y1281090D01*
X598400D02*
X627150D01*
X598400Y770090D02*
X627150D01*
Y1281090D01*
X598400Y770090D02*
Y1281090D01*
X572970Y771970D02*
Y840220D01*
X467470D02*
X572970D01*
X467470Y771970D02*
X572970D01*
X467470D02*
Y840220D01*
X464950Y777680D02*
Y832430D01*
X385700Y777680D02*
X464950D01*
X385700D02*
Y832430D01*
X464950D01*
X458292Y952572D02*
X499291D01*
Y929571D02*
Y952572D01*
X458292Y929571D02*
X499291D01*
X458292D02*
Y952572D01*
X399400Y1141700D02*
X413400D01*
X399400Y1169700D02*
X413400D01*
X399400Y1141700D02*
Y1169700D01*
X413400Y1141700D02*
Y1169700D01*
X445120Y1141700D02*
X459120D01*
X445120Y1169700D02*
X459120D01*
X445120Y1141700D02*
Y1169700D01*
X459120Y1141700D02*
Y1169700D01*
X487030Y1141700D02*
X501030D01*
X487030Y1169700D02*
X501030D01*
X487030Y1141700D02*
Y1169700D01*
X501030Y1141700D02*
Y1169700D01*
X410790Y1193930D02*
X424790D01*
X410790Y1221930D02*
X424790D01*
X410790Y1193930D02*
Y1221930D01*
X424790Y1193930D02*
Y1221930D01*
X541670Y1123920D02*
Y1151920D01*
X527670Y1123920D02*
Y1151920D01*
X541670D01*
X527670Y1123920D02*
X541670D01*
X386580Y1193930D02*
X400580D01*
X386580Y1221930D02*
X400580D01*
X386580Y1193930D02*
Y1221930D01*
X400580Y1193930D02*
Y1221930D01*
X542220Y1177990D02*
Y1191991D01*
X570220Y1177990D02*
Y1191991D01*
X542220D02*
X570220D01*
X542220Y1177990D02*
X570220D01*
X553070Y1123920D02*
X567070D01*
X553070Y1151920D02*
X567070D01*
X553070Y1123920D02*
Y1151920D01*
X567070Y1123920D02*
Y1151920D01*
D26*
X510020Y1092253D02*
Y1084755D01*
X511520Y1083256D01*
X514519D01*
X516018Y1084755D01*
Y1092253D01*
X525015Y1083256D02*
X519017D01*
X525015Y1089254D01*
Y1090754D01*
X523516Y1092253D01*
X520517D01*
X519017Y1090754D01*
X425994Y1072732D02*
X424495Y1074231D01*
X421496D01*
X419996Y1072732D01*
Y1071232D01*
X421496Y1069733D01*
X424495D01*
X425994Y1068233D01*
Y1066733D01*
X424495Y1065234D01*
X421496D01*
X419996Y1066733D01*
X428993Y1074231D02*
Y1065234D01*
X431992Y1068233D01*
X434991Y1065234D01*
Y1074231D01*
X437990Y1065234D02*
X440989D01*
X439490D01*
Y1074231D01*
X437990Y1072732D01*
X391744Y1238034D02*
X390244Y1239533D01*
X387245D01*
X385746Y1238034D01*
Y1232036D01*
X387245Y1230536D01*
X390244D01*
X391744Y1232036D01*
X400741Y1239533D02*
X394743D01*
Y1235034D01*
X397742Y1236534D01*
X399242D01*
X400741Y1235034D01*
Y1232036D01*
X399242Y1230536D01*
X396243D01*
X394743Y1232036D01*
X417438Y1237018D02*
X415938Y1238517D01*
X412939D01*
X411440Y1237018D01*
Y1231020D01*
X412939Y1229520D01*
X415938D01*
X417438Y1231020D01*
X426435Y1238517D02*
X423436Y1237018D01*
X420437Y1234018D01*
Y1231020D01*
X421937Y1229520D01*
X424936D01*
X426435Y1231020D01*
Y1232519D01*
X424936Y1234018D01*
X420437D01*
X554645Y1203109D02*
X553145Y1204608D01*
X550146D01*
X548647Y1203109D01*
Y1197111D01*
X550146Y1195611D01*
X553145D01*
X554645Y1197111D01*
X557644Y1204608D02*
X563642D01*
Y1203109D01*
X557644Y1197111D01*
Y1195611D01*
X553464Y1165763D02*
Y1156766D01*
X557963D01*
X559462Y1158266D01*
Y1164264D01*
X557963Y1165763D01*
X553464D01*
X562461Y1156766D02*
X565460D01*
X563961D01*
Y1165763D01*
X562461Y1164264D01*
X525446Y1167023D02*
Y1158026D01*
X529945D01*
X531444Y1159526D01*
Y1165524D01*
X529945Y1167023D01*
X525446D01*
X540441Y1158026D02*
X534443D01*
X540441Y1164024D01*
Y1165524D01*
X538942Y1167023D01*
X535943D01*
X534443Y1165524D01*
X416482Y844162D02*
Y853159D01*
X420980D01*
X422480Y851660D01*
Y848661D01*
X420980Y847161D01*
X416482D01*
X425479Y844162D02*
X428478D01*
X426978D01*
Y853159D01*
X425479Y851660D01*
X515154Y851328D02*
Y860325D01*
X519652D01*
X521152Y858826D01*
Y855826D01*
X519652Y854327D01*
X515154D01*
X530149Y851328D02*
X524151D01*
X530149Y857326D01*
Y858826D01*
X528650Y860325D01*
X525651D01*
X524151Y858826D01*
X383073Y844431D02*
Y853428D01*
X387571D01*
X389071Y851929D01*
Y848930D01*
X387571Y847430D01*
X383073D01*
X396569Y844431D02*
Y853428D01*
X392070Y848930D01*
X398068D01*
X554200Y850788D02*
Y859785D01*
X558699D01*
X560198Y858286D01*
Y855287D01*
X558699Y853787D01*
X554200D01*
X563197Y858286D02*
X564697Y859785D01*
X567696D01*
X569195Y858286D01*
Y856786D01*
X567696Y855287D01*
X566196D01*
X567696D01*
X569195Y853787D01*
Y852288D01*
X567696Y850788D01*
X564697D01*
X563197Y852288D01*
X487680Y1177290D02*
Y1186287D01*
X492178D01*
X493678Y1184788D01*
Y1181788D01*
X492178Y1180289D01*
X487680D01*
X490679D02*
X493678Y1177290D01*
X496677Y1178790D02*
X498177Y1177290D01*
X501176D01*
X502675Y1178790D01*
Y1184788D01*
X501176Y1186287D01*
X498177D01*
X496677Y1184788D01*
Y1183288D01*
X498177Y1181788D01*
X502675D01*
X400050Y1177290D02*
Y1186287D01*
X404548D01*
X406048Y1184788D01*
Y1181788D01*
X404548Y1180289D01*
X400050D01*
X403049D02*
X406048Y1177290D01*
X409047D02*
X412046D01*
X410547D01*
Y1186287D01*
X409047Y1184788D01*
X416545D02*
X418044Y1186287D01*
X421043D01*
X422543Y1184788D01*
Y1178790D01*
X421043Y1177290D01*
X418044D01*
X416545Y1178790D01*
Y1184788D01*
X445770Y1177290D02*
Y1186287D01*
X450269D01*
X451768Y1184788D01*
Y1181788D01*
X450269Y1180289D01*
X445770D01*
X448769D02*
X451768Y1177290D01*
X454767D02*
X457766D01*
X456267D01*
Y1186287D01*
X454767Y1184788D01*
X462265Y1177290D02*
X465264D01*
X463764D01*
Y1186287D01*
X462265Y1184788D01*
X540129Y1262758D02*
Y1255260D01*
X541628Y1253761D01*
X544627D01*
X546127Y1255260D01*
Y1262758D01*
X549126Y1253761D02*
X552125D01*
X550626D01*
Y1262758D01*
X549126Y1261258D01*
X411238Y1278581D02*
Y1271084D01*
X412738Y1269584D01*
X415737D01*
X417236Y1271084D01*
Y1278581D01*
X420235Y1277082D02*
X421735Y1278581D01*
X424734D01*
X426233Y1277082D01*
Y1275582D01*
X424734Y1274082D01*
X423234D01*
X424734D01*
X426233Y1272583D01*
Y1271084D01*
X424734Y1269584D01*
X421735D01*
X420235Y1271084D01*
X410184Y943517D02*
Y942018D01*
X413183Y939018D01*
X416182Y942018D01*
Y943517D01*
X413183Y939018D02*
Y934520D01*
X425179D02*
X419181D01*
X425179Y940518D01*
Y942018D01*
X423680Y943517D01*
X420681D01*
X419181Y942018D01*
X458978Y969371D02*
Y967872D01*
X461977Y964873D01*
X464976Y967872D01*
Y969371D01*
X461977Y964873D02*
Y960374D01*
X467975Y967872D02*
X469475Y969371D01*
X472474D01*
X473973Y967872D01*
Y966372D01*
X472474Y964873D01*
X470974D01*
X472474D01*
X473973Y963373D01*
Y961873D01*
X472474Y960374D01*
X469475D01*
X467975Y961873D01*
D27*
X580000Y1268999D02*
Y1266333D01*
X581333Y1265000D01*
X582666Y1266333D01*
Y1268999D01*
X583999D02*
Y1265000D01*
X585998D01*
X586665Y1265667D01*
Y1266333D01*
X585998Y1266999D01*
X583999D01*
X585998D01*
X586665Y1267666D01*
Y1268332D01*
X585998Y1268999D01*
X583999D01*
X587997Y1265000D02*
Y1267666D01*
X589330Y1268999D01*
X590663Y1267666D01*
Y1265000D01*
Y1266999D01*
X587997D01*
X591996Y1268999D02*
X594662D01*
X593329D01*
Y1265000D01*
X580000Y1240000D02*
Y1243999D01*
X581999D01*
X582666Y1243332D01*
Y1241999D01*
X581999Y1241333D01*
X580000D01*
X586664Y1243332D02*
X585998Y1243999D01*
X584665D01*
X583999Y1243332D01*
Y1240667D01*
X584665Y1240000D01*
X585998D01*
X586664Y1240667D01*
X587997Y1240000D02*
X589330D01*
X588664D01*
Y1243999D01*
X587997Y1243332D01*
X591330D02*
X591996Y1243999D01*
X593329D01*
X593995Y1243332D01*
Y1242666D01*
X593329Y1241999D01*
X592663D01*
X593329D01*
X593995Y1241333D01*
Y1240667D01*
X593329Y1240000D01*
X591996D01*
X591330Y1240667D01*
X580000Y1212500D02*
Y1216499D01*
X581999D01*
X582666Y1215832D01*
Y1214499D01*
X581999Y1213833D01*
X580000D01*
X586665Y1215832D02*
X585998Y1216499D01*
X584665D01*
X583999Y1215832D01*
Y1213167D01*
X584665Y1212500D01*
X585998D01*
X586665Y1213167D01*
X587997Y1212500D02*
X589330D01*
X588664D01*
Y1216499D01*
X587997Y1215832D01*
X593329Y1212500D02*
Y1216499D01*
X591330Y1214499D01*
X593995D01*
X580000Y1187500D02*
Y1191499D01*
X581999D01*
X582666Y1190832D01*
Y1189499D01*
X581999Y1188833D01*
X580000D01*
X586664Y1190832D02*
X585998Y1191499D01*
X584665D01*
X583999Y1190832D01*
Y1188167D01*
X584665Y1187500D01*
X585998D01*
X586664Y1188167D01*
X587997Y1187500D02*
X589330D01*
X588664D01*
Y1191499D01*
X587997Y1190832D01*
X593995Y1191499D02*
X591330D01*
Y1189499D01*
X592663Y1190166D01*
X593329D01*
X593995Y1189499D01*
Y1188167D01*
X593329Y1187500D01*
X591996D01*
X591330Y1188167D01*
X582500Y1162500D02*
Y1166499D01*
X584499D01*
X585166Y1165832D01*
Y1164499D01*
X584499Y1163833D01*
X582500D01*
X586499Y1162500D02*
Y1165166D01*
X587831Y1166499D01*
X589165Y1165166D01*
Y1162500D01*
Y1164499D01*
X586499D01*
X590497Y1165832D02*
X591164Y1166499D01*
X592497D01*
X593163Y1165832D01*
Y1163167D01*
X592497Y1162500D01*
X591164D01*
X590497Y1163167D01*
Y1165832D01*
X582500Y1137500D02*
Y1141499D01*
X584499D01*
X585166Y1140832D01*
Y1139499D01*
X584499Y1138833D01*
X582500D01*
X586499Y1137500D02*
Y1140166D01*
X587831Y1141499D01*
X589165Y1140166D01*
Y1137500D01*
Y1139499D01*
X586499D01*
X590497Y1137500D02*
X591830D01*
X591164D01*
Y1141499D01*
X590497Y1140832D01*
X582500Y1112500D02*
Y1116499D01*
X584499D01*
X585166Y1115832D01*
Y1114499D01*
X584499Y1113833D01*
X582500D01*
X586499Y1112500D02*
Y1115166D01*
X587831Y1116499D01*
X589165Y1115166D01*
Y1112500D01*
Y1114499D01*
X586499D01*
X593163Y1112500D02*
X590497D01*
X593163Y1115166D01*
Y1115832D01*
X592497Y1116499D01*
X591164D01*
X590497Y1115832D01*
X582500Y1087500D02*
Y1091499D01*
X584499D01*
X585166Y1090832D01*
Y1089499D01*
X584499Y1088833D01*
X582500D01*
X586499Y1087500D02*
Y1090166D01*
X587831Y1091499D01*
X589165Y1090166D01*
Y1087500D01*
Y1089499D01*
X586499D01*
X590497Y1090832D02*
X591164Y1091499D01*
X592497D01*
X593163Y1090832D01*
Y1090166D01*
X592497Y1089499D01*
X591830D01*
X592497D01*
X593163Y1088833D01*
Y1088167D01*
X592497Y1087500D01*
X591164D01*
X590497Y1088167D01*
X582500Y1062500D02*
Y1066499D01*
X584499D01*
X585166Y1065832D01*
Y1064499D01*
X584499Y1063833D01*
X582500D01*
X586499Y1062500D02*
Y1065166D01*
X587831Y1066499D01*
X589165Y1065166D01*
Y1062500D01*
Y1064499D01*
X586499D01*
X592497Y1062500D02*
Y1066499D01*
X590497Y1064499D01*
X593163D01*
X582500Y1037500D02*
Y1041499D01*
X584499D01*
X585166Y1040832D01*
Y1039499D01*
X584499Y1038833D01*
X582500D01*
X586499Y1037500D02*
Y1040166D01*
X587831Y1041499D01*
X589165Y1040166D01*
Y1037500D01*
Y1039499D01*
X586499D01*
X593163Y1041499D02*
X590497D01*
Y1039499D01*
X591830Y1040166D01*
X592497D01*
X593163Y1039499D01*
Y1038167D01*
X592497Y1037500D01*
X591164D01*
X590497Y1038167D01*
X582500Y1012500D02*
Y1016499D01*
X584499D01*
X585166Y1015832D01*
Y1014499D01*
X584499Y1013833D01*
X582500D01*
X586499Y1012500D02*
Y1015166D01*
X587831Y1016499D01*
X589165Y1015166D01*
Y1012500D01*
Y1014499D01*
X586499D01*
X593163Y1016499D02*
X591830Y1015832D01*
X590497Y1014499D01*
Y1013167D01*
X591164Y1012500D01*
X592497D01*
X593163Y1013167D01*
Y1013833D01*
X592497Y1014499D01*
X590497D01*
X582500Y987500D02*
Y991499D01*
X584499D01*
X585166Y990832D01*
Y989499D01*
X584499Y988833D01*
X582500D01*
X586499Y987500D02*
Y990166D01*
X587831Y991499D01*
X589165Y990166D01*
Y987500D01*
Y989499D01*
X586499D01*
X590497Y991499D02*
X593163D01*
Y990832D01*
X590497Y988167D01*
Y987500D01*
X582500Y962500D02*
Y966499D01*
X584499D01*
X585166Y965832D01*
Y964499D01*
X584499Y963833D01*
X582500D01*
X586499Y966499D02*
Y962500D01*
X588498D01*
X589165Y963167D01*
Y963833D01*
X588498Y964499D01*
X586499D01*
X588498D01*
X589165Y965166D01*
Y965832D01*
X588498Y966499D01*
X586499D01*
X590497Y965832D02*
X591164Y966499D01*
X592497D01*
X593163Y965832D01*
Y963167D01*
X592497Y962500D01*
X591164D01*
X590497Y963167D01*
Y965832D01*
X582500Y937500D02*
Y941499D01*
X584499D01*
X585166Y940832D01*
Y939499D01*
X584499Y938833D01*
X582500D01*
X586499Y941499D02*
Y937500D01*
X588498D01*
X589165Y938167D01*
Y938833D01*
X588498Y939499D01*
X586499D01*
X588498D01*
X589165Y940166D01*
Y940832D01*
X588498Y941499D01*
X586499D01*
X590497Y937500D02*
X591830D01*
X591164D01*
Y941499D01*
X590497Y940832D01*
X580000Y915000D02*
Y918999D01*
X581999D01*
X582666Y918332D01*
Y916999D01*
X581999Y916333D01*
X580000D01*
X583999Y918999D02*
Y915000D01*
X585998D01*
X586665Y915667D01*
Y916333D01*
X585998Y916999D01*
X583999D01*
X585998D01*
X586665Y917666D01*
Y918332D01*
X585998Y918999D01*
X583999D01*
X587997Y915000D02*
X589330D01*
X588664D01*
Y918999D01*
X587997Y918332D01*
X591330D02*
X591996Y918999D01*
X593329D01*
X593995Y918332D01*
Y915667D01*
X593329Y915000D01*
X591996D01*
X591330Y915667D01*
Y918332D01*
X580000Y885000D02*
Y888999D01*
X581999D01*
X582666Y888332D01*
Y886999D01*
X581999Y886333D01*
X580000D01*
X583999Y888999D02*
Y885000D01*
X585998D01*
X586665Y885667D01*
Y886333D01*
X585998Y886999D01*
X583999D01*
X585998D01*
X586665Y887666D01*
Y888332D01*
X585998Y888999D01*
X583999D01*
X587997Y885000D02*
X589330D01*
X588664D01*
Y888999D01*
X587997Y888332D01*
X591330Y885000D02*
X592663D01*
X591996D01*
Y888999D01*
X591330Y888332D01*
X580000Y860000D02*
Y863999D01*
X582666Y860000D01*
Y863999D01*
X583999Y860000D02*
Y863999D01*
X585998D01*
X586664Y863332D01*
Y861999D01*
X585998Y861333D01*
X583999D01*
X585331D02*
X586664Y860000D01*
X590663Y863332D02*
X589997Y863999D01*
X588664D01*
X587997Y863332D01*
Y862666D01*
X588664Y861999D01*
X589997D01*
X590663Y861333D01*
Y860667D01*
X589997Y860000D01*
X588664D01*
X587997Y860667D01*
X591996Y863999D02*
X594662D01*
X593329D01*
Y860000D01*
X575000Y836499D02*
Y833833D01*
X576333Y832500D01*
X577666Y833833D01*
Y836499D01*
X581664Y835832D02*
X580998Y836499D01*
X579665D01*
X578999Y835832D01*
Y833167D01*
X579665Y832500D01*
X580998D01*
X581664Y833167D01*
X585663Y835832D02*
X584997Y836499D01*
X583664D01*
X582997Y835832D01*
Y833167D01*
X583664Y832500D01*
X584997D01*
X585663Y833167D01*
X586996Y835832D02*
X587663Y836499D01*
X588995D01*
X589662Y835832D01*
Y835166D01*
X588995Y834499D01*
X588329D01*
X588995D01*
X589662Y833833D01*
Y833167D01*
X588995Y832500D01*
X587663D01*
X586996Y833167D01*
X590995Y836499D02*
Y833833D01*
X592328Y832500D01*
X593661Y833833D01*
Y836499D01*
X594993Y835832D02*
X595660Y836499D01*
X596993D01*
X597659Y835832D01*
Y835166D01*
X596993Y834499D01*
X596326D01*
X596993D01*
X597659Y833833D01*
Y833167D01*
X596993Y832500D01*
X595660D01*
X594993Y833167D01*
X585166Y810832D02*
X584499Y811499D01*
X583166D01*
X582500Y810832D01*
Y808167D01*
X583166Y807500D01*
X584499D01*
X585166Y808167D01*
Y809499D01*
X583833D01*
X586499Y807500D02*
Y811499D01*
X589165Y807500D01*
Y811499D01*
X590497D02*
Y807500D01*
X592497D01*
X593163Y808167D01*
Y810832D01*
X592497Y811499D01*
X590497D01*
X585166Y785832D02*
X584499Y786499D01*
X583166D01*
X582500Y785832D01*
Y783167D01*
X583166Y782500D01*
X584499D01*
X585166Y783167D01*
Y784499D01*
X583833D01*
X586499Y782500D02*
Y786499D01*
X589165Y782500D01*
Y786499D01*
X590497D02*
Y782500D01*
X592497D01*
X593163Y783167D01*
Y785832D01*
X592497Y786499D01*
X590497D01*
X547500Y846499D02*
Y843833D01*
X548833Y842500D01*
X550166Y843833D01*
Y846499D01*
X554165Y845832D02*
X553498Y846499D01*
X552165D01*
X551499Y845832D01*
Y843167D01*
X552165Y842500D01*
X553498D01*
X554165Y843167D01*
X558163Y845832D02*
X557497Y846499D01*
X556164D01*
X555497Y845832D01*
Y843167D01*
X556164Y842500D01*
X557497D01*
X558163Y843167D01*
X559496Y845832D02*
X560163Y846499D01*
X561495D01*
X562162Y845832D01*
Y845166D01*
X561495Y844499D01*
X560829D01*
X561495D01*
X562162Y843833D01*
Y843167D01*
X561495Y842500D01*
X560163D01*
X559496Y843167D01*
X563495Y846499D02*
Y843833D01*
X564828Y842500D01*
X566161Y843833D01*
Y846499D01*
X567494Y845832D02*
X568160Y846499D01*
X569493D01*
X570159Y845832D01*
Y845166D01*
X569493Y844499D01*
X568826D01*
X569493D01*
X570159Y843833D01*
Y843167D01*
X569493Y842500D01*
X568160D01*
X567494Y843167D01*
X525166Y845832D02*
X524499Y846499D01*
X523166D01*
X522500Y845832D01*
Y845166D01*
X523166Y844499D01*
X524499D01*
X525166Y843833D01*
Y843167D01*
X524499Y842500D01*
X523166D01*
X522500Y843167D01*
X526499Y846499D02*
Y842500D01*
X527832Y843833D01*
X529165Y842500D01*
Y846499D01*
X530497D02*
Y842500D01*
X532497D01*
X533163Y843167D01*
Y845832D01*
X532497Y846499D01*
X530497D01*
X534496D02*
X535829D01*
X535163D01*
Y842500D01*
X534496D01*
X535829D01*
X539828Y846499D02*
X538495D01*
X537828Y845832D01*
Y843167D01*
X538495Y842500D01*
X539828D01*
X540494Y843167D01*
Y845832D01*
X539828Y846499D01*
X495166Y845832D02*
X494499Y846499D01*
X493166D01*
X492500Y845832D01*
Y845166D01*
X493166Y844499D01*
X494499D01*
X495166Y843833D01*
Y843167D01*
X494499Y842500D01*
X493166D01*
X492500Y843167D01*
X496499Y846499D02*
Y842500D01*
X497832Y843833D01*
X499165Y842500D01*
Y846499D01*
X500497D02*
Y842500D01*
X502497D01*
X503163Y843167D01*
Y845832D01*
X502497Y846499D01*
X500497D01*
X507162Y845832D02*
X506495Y846499D01*
X505163D01*
X504496Y845832D01*
Y843167D01*
X505163Y842500D01*
X506495D01*
X507162Y843167D01*
X508495Y846499D02*
Y842500D01*
X511161D01*
X512494Y846499D02*
Y842500D01*
Y843833D01*
X515159Y846499D01*
X513160Y844499D01*
X515159Y842500D01*
X477666Y845832D02*
X476999Y846499D01*
X475666D01*
X475000Y845832D01*
Y843167D01*
X475666Y842500D01*
X476999D01*
X477666Y843167D01*
Y844499D01*
X476333D01*
X478999Y842500D02*
Y846499D01*
X481665Y842500D01*
Y846499D01*
X482997D02*
Y842500D01*
X484997D01*
X485663Y843167D01*
Y845832D01*
X484997Y846499D01*
X482997D01*
X440000Y776499D02*
Y773833D01*
X441333Y772500D01*
X442666Y773833D01*
Y776499D01*
X446665Y775832D02*
X445998Y776499D01*
X444665D01*
X443999Y775832D01*
Y773167D01*
X444665Y772500D01*
X445998D01*
X446665Y773167D01*
X450663Y775832D02*
X449997Y776499D01*
X448664D01*
X447997Y775832D01*
Y773167D01*
X448664Y772500D01*
X449997D01*
X450663Y773167D01*
X451996Y775832D02*
X452663Y776499D01*
X453995D01*
X454662Y775832D01*
Y775166D01*
X453995Y774499D01*
X453329D01*
X453995D01*
X454662Y773833D01*
Y773167D01*
X453995Y772500D01*
X452663D01*
X451996Y773167D01*
X455995Y776499D02*
Y773833D01*
X457328Y772500D01*
X458661Y773833D01*
Y776499D01*
X459993Y775832D02*
X460660Y776499D01*
X461993D01*
X462659Y775832D01*
Y775166D01*
X461993Y774499D01*
X461326D01*
X461993D01*
X462659Y773833D01*
Y773167D01*
X461993Y772500D01*
X460660D01*
X459993Y773167D01*
X415000Y776499D02*
Y772500D01*
X416999D01*
X417666Y773167D01*
Y773833D01*
X416999Y774499D01*
X415000D01*
X416999D01*
X417666Y775166D01*
Y775832D01*
X416999Y776499D01*
X415000D01*
X420998D02*
X419665D01*
X418999Y775832D01*
Y773167D01*
X419665Y772500D01*
X420998D01*
X421665Y773167D01*
Y775832D01*
X420998Y776499D01*
X424997D02*
X423664D01*
X422997Y775832D01*
Y773167D01*
X423664Y772500D01*
X424997D01*
X425663Y773167D01*
Y775832D01*
X424997Y776499D01*
X426996D02*
X429662D01*
X428329D01*
Y772500D01*
X430995D02*
X432328D01*
X431661D01*
Y776499D01*
X430995Y775832D01*
X395166D02*
X394499Y776499D01*
X393166D01*
X392500Y775832D01*
Y773167D01*
X393166Y772500D01*
X394499D01*
X395166Y773167D01*
Y774499D01*
X393833D01*
X396499Y772500D02*
Y776499D01*
X399165Y772500D01*
Y776499D01*
X400497D02*
Y772500D01*
X402497D01*
X403163Y773167D01*
Y775832D01*
X402497Y776499D01*
X400497D01*
X440000Y838999D02*
Y836333D01*
X441333Y835000D01*
X442666Y836333D01*
Y838999D01*
X446665Y838332D02*
X445998Y838999D01*
X444665D01*
X443999Y838332D01*
Y835667D01*
X444665Y835000D01*
X445998D01*
X446665Y835667D01*
X450663Y838332D02*
X449997Y838999D01*
X448664D01*
X447997Y838332D01*
Y835667D01*
X448664Y835000D01*
X449997D01*
X450663Y835667D01*
X451996Y838332D02*
X452663Y838999D01*
X453995D01*
X454662Y838332D01*
Y837666D01*
X453995Y836999D01*
X453329D01*
X453995D01*
X454662Y836333D01*
Y835667D01*
X453995Y835000D01*
X452663D01*
X451996Y835667D01*
X455995Y838999D02*
Y836333D01*
X457328Y835000D01*
X458661Y836333D01*
Y838999D01*
X459994Y838332D02*
X460660Y838999D01*
X461993D01*
X462659Y838332D01*
Y837666D01*
X461993Y836999D01*
X461326D01*
X461993D01*
X462659Y836333D01*
Y835667D01*
X461993Y835000D01*
X460660D01*
X459994Y835667D01*
X412500Y838999D02*
Y835000D01*
X414499D01*
X415166Y835667D01*
Y836333D01*
X414499Y836999D01*
X412500D01*
X414499D01*
X415166Y837666D01*
Y838332D01*
X414499Y838999D01*
X412500D01*
X418498D02*
X417165D01*
X416499Y838332D01*
Y835667D01*
X417165Y835000D01*
X418498D01*
X419165Y835667D01*
Y838332D01*
X418498Y838999D01*
X422497D02*
X421164D01*
X420497Y838332D01*
Y835667D01*
X421164Y835000D01*
X422497D01*
X423163Y835667D01*
Y838332D01*
X422497Y838999D01*
X424496D02*
X427162D01*
X425829D01*
Y835000D01*
X428495Y838332D02*
X429161Y838999D01*
X430494D01*
X431161Y838332D01*
Y835667D01*
X430494Y835000D01*
X429161D01*
X428495Y835667D01*
Y838332D01*
X395166D02*
X394499Y838999D01*
X393166D01*
X392500Y838332D01*
Y835667D01*
X393166Y835000D01*
X394499D01*
X395166Y835667D01*
Y836999D01*
X393833D01*
X396499Y835000D02*
Y838999D01*
X399165Y835000D01*
Y838999D01*
X400497D02*
Y835000D01*
X402497D01*
X403163Y835667D01*
Y838332D01*
X402497Y838999D01*
X400497D01*
X362500Y782500D02*
Y786499D01*
X364499D01*
X365166Y785832D01*
Y784499D01*
X364499Y783833D01*
X362500D01*
X366499Y786499D02*
Y782500D01*
X368498D01*
X369165Y783167D01*
Y783833D01*
X368498Y784499D01*
X366499D01*
X368498D01*
X369165Y785166D01*
Y785832D01*
X368498Y786499D01*
X366499D01*
X370497Y782500D02*
X371830D01*
X371164D01*
Y786499D01*
X370497Y785832D01*
X376495Y782500D02*
X373830D01*
X376495Y785166D01*
Y785832D01*
X375829Y786499D01*
X374496D01*
X373830Y785832D01*
X362500Y807500D02*
Y811499D01*
X364499D01*
X365166Y810832D01*
Y809499D01*
X364499Y808833D01*
X362500D01*
X366499Y811499D02*
Y807500D01*
X368498D01*
X369165Y808167D01*
Y808833D01*
X368498Y809499D01*
X366499D01*
X368498D01*
X369165Y810166D01*
Y810832D01*
X368498Y811499D01*
X366499D01*
X370497Y807500D02*
X371830D01*
X371164D01*
Y811499D01*
X370497Y810832D01*
X373830D02*
X374496Y811499D01*
X375829D01*
X376495Y810832D01*
Y810166D01*
X375829Y809499D01*
X375163D01*
X375829D01*
X376495Y808833D01*
Y808167D01*
X375829Y807500D01*
X374496D01*
X373830Y808167D01*
X362500Y835000D02*
Y838999D01*
X364499D01*
X365166Y838332D01*
Y836999D01*
X364499Y836333D01*
X362500D01*
X366499Y838999D02*
Y835000D01*
X368498D01*
X369165Y835667D01*
Y836333D01*
X368498Y836999D01*
X366499D01*
X368498D01*
X369165Y837666D01*
Y838332D01*
X368498Y838999D01*
X366499D01*
X370497Y835000D02*
X371830D01*
X371164D01*
Y838999D01*
X370497Y838332D01*
X375829Y835000D02*
Y838999D01*
X373830Y836999D01*
X376495D01*
X362500Y860000D02*
Y863999D01*
X364499D01*
X365166Y863332D01*
Y861999D01*
X364499Y861333D01*
X362500D01*
X366499Y863999D02*
Y860000D01*
X368498D01*
X369165Y860667D01*
Y861333D01*
X368498Y861999D01*
X366499D01*
X368498D01*
X369165Y862666D01*
Y863332D01*
X368498Y863999D01*
X366499D01*
X370497Y860000D02*
X371830D01*
X371164D01*
Y863999D01*
X370497Y863332D01*
X376495Y863999D02*
X373830D01*
Y861999D01*
X375163Y862666D01*
X375829D01*
X376495Y861999D01*
Y860667D01*
X375829Y860000D01*
X374496D01*
X373830Y860667D01*
X362500Y885000D02*
Y888999D01*
X364499D01*
X365166Y888332D01*
Y886999D01*
X364499Y886333D01*
X362500D01*
X366499Y885000D02*
Y887666D01*
X367831Y888999D01*
X369165Y887666D01*
Y885000D01*
Y886999D01*
X366499D01*
X370497Y888332D02*
X371164Y888999D01*
X372497D01*
X373163Y888332D01*
Y887666D01*
X372497Y886999D01*
X373163Y886333D01*
Y885667D01*
X372497Y885000D01*
X371164D01*
X370497Y885667D01*
Y886333D01*
X371164Y886999D01*
X370497Y887666D01*
Y888332D01*
X371164Y886999D02*
X372497D01*
X362500Y915000D02*
Y918999D01*
X364499D01*
X365166Y918332D01*
Y916999D01*
X364499Y916333D01*
X362500D01*
X366499Y915000D02*
Y917666D01*
X367831Y918999D01*
X369165Y917666D01*
Y915000D01*
Y916999D01*
X366499D01*
X370497Y915000D02*
X371830D01*
X371164D01*
Y918999D01*
X370497Y918332D01*
X373830D02*
X374496Y918999D01*
X375829D01*
X376495Y918332D01*
Y915667D01*
X375829Y915000D01*
X374496D01*
X373830Y915667D01*
Y918332D01*
X362500Y937500D02*
Y941499D01*
X364499D01*
X365166Y940832D01*
Y939499D01*
X364499Y938833D01*
X362500D01*
X366499Y937500D02*
Y940166D01*
X367831Y941499D01*
X369165Y940166D01*
Y937500D01*
Y939499D01*
X366499D01*
X370497Y937500D02*
X371830D01*
X371164D01*
Y941499D01*
X370497Y940832D01*
X373830D02*
X374496Y941499D01*
X375829D01*
X376495Y940832D01*
Y938167D01*
X375829Y937500D01*
X374496D01*
X373830Y938167D01*
Y940832D01*
X362500Y962500D02*
Y966499D01*
X364499D01*
X365166Y965832D01*
Y964499D01*
X364499Y963833D01*
X362500D01*
X366499Y962500D02*
Y965166D01*
X367831Y966499D01*
X369165Y965166D01*
Y962500D01*
Y964499D01*
X366499D01*
X370497Y962500D02*
X371830D01*
X371164D01*
Y966499D01*
X370497Y965832D01*
X373830Y962500D02*
X375163D01*
X374496D01*
Y966499D01*
X373830Y965832D01*
X362500Y987500D02*
Y991499D01*
X364499D01*
X365166Y990832D01*
Y989499D01*
X364499Y988833D01*
X362500D01*
X366499Y987500D02*
Y990166D01*
X367831Y991499D01*
X369165Y990166D01*
Y987500D01*
Y989499D01*
X366499D01*
X370497Y987500D02*
X371830D01*
X371164D01*
Y991499D01*
X370497Y990832D01*
X376495Y987500D02*
X373830D01*
X376495Y990166D01*
Y990832D01*
X375829Y991499D01*
X374496D01*
X373830Y990832D01*
X362500Y1012500D02*
Y1016499D01*
X364499D01*
X365166Y1015832D01*
Y1014499D01*
X364499Y1013833D01*
X362500D01*
X366499Y1012500D02*
Y1015166D01*
X367831Y1016499D01*
X369165Y1015166D01*
Y1012500D01*
Y1014499D01*
X366499D01*
X370497Y1012500D02*
X371830D01*
X371164D01*
Y1016499D01*
X370497Y1015832D01*
X376495Y1016499D02*
X373830D01*
Y1014499D01*
X375163Y1015166D01*
X375829D01*
X376495Y1014499D01*
Y1013167D01*
X375829Y1012500D01*
X374496D01*
X373830Y1013167D01*
X362500Y1037500D02*
Y1041499D01*
X364499D01*
X365166Y1040832D01*
Y1039499D01*
X364499Y1038833D01*
X362500D01*
X366499Y1041499D02*
Y1037500D01*
X368498D01*
X369165Y1038167D01*
Y1038833D01*
X368498Y1039499D01*
X366499D01*
X368498D01*
X369165Y1040166D01*
Y1040832D01*
X368498Y1041499D01*
X366499D01*
X370497Y1040832D02*
X371164Y1041499D01*
X372497D01*
X373163Y1040832D01*
Y1040166D01*
X372497Y1039499D01*
X371830D01*
X372497D01*
X373163Y1038833D01*
Y1038167D01*
X372497Y1037500D01*
X371164D01*
X370497Y1038167D01*
X362500Y1062500D02*
Y1066499D01*
X364499D01*
X365166Y1065832D01*
Y1064499D01*
X364499Y1063833D01*
X362500D01*
X366499Y1066499D02*
Y1062500D01*
X368498D01*
X369165Y1063167D01*
Y1063833D01*
X368498Y1064499D01*
X366499D01*
X368498D01*
X369165Y1065166D01*
Y1065832D01*
X368498Y1066499D01*
X366499D01*
X372497Y1062500D02*
Y1066499D01*
X370497Y1064499D01*
X373163D01*
X362500Y1087500D02*
Y1091499D01*
X364499D01*
X365166Y1090832D01*
Y1089499D01*
X364499Y1088833D01*
X362500D01*
X366499Y1091499D02*
Y1087500D01*
X368498D01*
X369165Y1088167D01*
Y1088833D01*
X368498Y1089499D01*
X366499D01*
X368498D01*
X369165Y1090166D01*
Y1090832D01*
X368498Y1091499D01*
X366499D01*
X373163D02*
X370497D01*
Y1089499D01*
X371830Y1090166D01*
X372497D01*
X373163Y1089499D01*
Y1088167D01*
X372497Y1087500D01*
X371164D01*
X370497Y1088167D01*
X362500Y1112500D02*
Y1116499D01*
X364499D01*
X365166Y1115832D01*
Y1114499D01*
X364499Y1113833D01*
X362500D01*
X366499Y1116499D02*
Y1112500D01*
X368498D01*
X369165Y1113167D01*
Y1113833D01*
X368498Y1114499D01*
X366499D01*
X368498D01*
X369165Y1115166D01*
Y1115832D01*
X368498Y1116499D01*
X366499D01*
X373163D02*
X371830Y1115832D01*
X370497Y1114499D01*
Y1113167D01*
X371164Y1112500D01*
X372497D01*
X373163Y1113167D01*
Y1113833D01*
X372497Y1114499D01*
X370497D01*
X362500Y1137500D02*
Y1141499D01*
X364499D01*
X365166Y1140832D01*
Y1139499D01*
X364499Y1138833D01*
X362500D01*
X366499Y1141499D02*
Y1137500D01*
X368498D01*
X369165Y1138167D01*
Y1138833D01*
X368498Y1139499D01*
X366499D01*
X368498D01*
X369165Y1140166D01*
Y1140832D01*
X368498Y1141499D01*
X366499D01*
X370497D02*
X373163D01*
Y1140832D01*
X370497Y1138167D01*
Y1137500D01*
X362500Y1162500D02*
Y1166499D01*
X364499D01*
X365166Y1165832D01*
Y1164499D01*
X364499Y1163833D01*
X362500D01*
X366499Y1166499D02*
Y1162500D01*
X368498D01*
X369165Y1163167D01*
Y1163833D01*
X368498Y1164499D01*
X366499D01*
X368498D01*
X369165Y1165166D01*
Y1165832D01*
X368498Y1166499D01*
X366499D01*
X370497Y1165832D02*
X371164Y1166499D01*
X372497D01*
X373163Y1165832D01*
Y1165166D01*
X372497Y1164499D01*
X373163Y1163833D01*
Y1163167D01*
X372497Y1162500D01*
X371164D01*
X370497Y1163167D01*
Y1163833D01*
X371164Y1164499D01*
X370497Y1165166D01*
Y1165832D01*
X371164Y1164499D02*
X372497D01*
X362500Y1187500D02*
Y1191499D01*
X364499D01*
X365166Y1190832D01*
Y1189499D01*
X364499Y1188833D01*
X362500D01*
X366499Y1191499D02*
Y1187500D01*
X368498D01*
X369165Y1188167D01*
Y1188833D01*
X368498Y1189499D01*
X366499D01*
X368498D01*
X369165Y1190166D01*
Y1190832D01*
X368498Y1191499D01*
X366499D01*
X370497Y1188167D02*
X371164Y1187500D01*
X372497D01*
X373163Y1188167D01*
Y1190832D01*
X372497Y1191499D01*
X371164D01*
X370497Y1190832D01*
Y1190166D01*
X371164Y1189499D01*
X373163D01*
X365166Y1216499D02*
X362500D01*
Y1214499D01*
X363833Y1215166D01*
X364499D01*
X365166Y1214499D01*
Y1213167D01*
X364499Y1212500D01*
X363166D01*
X362500Y1213167D01*
X366499Y1216499D02*
Y1213833D01*
X367831Y1212500D01*
X369165Y1213833D01*
Y1216499D01*
X365166Y1243332D02*
X364499Y1243999D01*
X363166D01*
X362500Y1243332D01*
Y1240667D01*
X363166Y1240000D01*
X364499D01*
X365166Y1240667D01*
Y1241999D01*
X363833D01*
X366499Y1240000D02*
Y1243999D01*
X369165Y1240000D01*
Y1243999D01*
X370497D02*
Y1240000D01*
X372497D01*
X373163Y1240667D01*
Y1243332D01*
X372497Y1243999D01*
X370497D01*
X362500Y1266499D02*
Y1263833D01*
X363833Y1262500D01*
X365166Y1263833D01*
Y1266499D01*
X369165Y1265832D02*
X368498Y1266499D01*
X367165D01*
X366499Y1265832D01*
Y1263167D01*
X367165Y1262500D01*
X368498D01*
X369165Y1263167D01*
X373163Y1265832D02*
X372497Y1266499D01*
X371164D01*
X370497Y1265832D01*
Y1263167D01*
X371164Y1262500D01*
X372497D01*
X373163Y1263167D01*
X374496Y1265832D02*
X375163Y1266499D01*
X376495D01*
X377162Y1265832D01*
Y1265166D01*
X376495Y1264499D01*
X375829D01*
X376495D01*
X377162Y1263833D01*
Y1263167D01*
X376495Y1262500D01*
X375163D01*
X374496Y1263167D01*
X378495Y1266499D02*
Y1263833D01*
X379828Y1262500D01*
X381161Y1263833D01*
Y1266499D01*
X382493Y1265832D02*
X383160Y1266499D01*
X384493D01*
X385159Y1265832D01*
Y1265166D01*
X384493Y1264499D01*
X383826D01*
X384493D01*
X385159Y1263833D01*
Y1263167D01*
X384493Y1262500D01*
X383160D01*
X382493Y1263167D01*
M02*
