G04 Layer_Physical_Order=2*
G04 Layer_Color=16711680*
%FSLAX44Y44*%
%MOMM*%
G71*
G01*
G75*
%ADD16R,0.8500X0.8500*%
%ADD17C,0.1000*%
%ADD19C,0.5800*%
%ADD20R,0.6000X0.9000*%
%ADD21C,1.5240*%
%ADD22C,1.0000*%
%ADD23C,1.5200*%
%ADD24C,0.2000*%
D16*
X526430Y1141730D02*
D03*
X512430D02*
D03*
X511160Y1187450D02*
D03*
X525160D02*
D03*
X469250Y1097280D02*
D03*
X483250D02*
D03*
X528970D02*
D03*
X514970D02*
D03*
X437530Y1141730D02*
D03*
X423530D02*
D03*
X436260Y1097280D02*
D03*
X422260D02*
D03*
X565800Y927100D02*
D03*
X551800D02*
D03*
X564530Y878840D02*
D03*
X550530D02*
D03*
X498460Y927100D02*
D03*
X512460D02*
D03*
X418480Y877570D02*
D03*
X404480D02*
D03*
X456550D02*
D03*
X470550D02*
D03*
X418480Y927100D02*
D03*
X404480D02*
D03*
X455280D02*
D03*
X469280D02*
D03*
X513730Y877570D02*
D03*
X499730D02*
D03*
X522770Y1044170D02*
D03*
X508770D02*
D03*
X521900Y995970D02*
D03*
X507900D02*
D03*
X484520Y1141730D02*
D03*
X470520D02*
D03*
D17*
X514970Y1111219D02*
Y1118108D01*
X515302Y988568D02*
X524192Y979678D01*
X507900Y995970D02*
X515302Y988568D01*
X493522Y883778D02*
X499730Y877570D01*
X480111Y897189D02*
X493522Y883778D01*
X471424Y947928D02*
X550010D01*
X469280Y945784D02*
Y946292D01*
Y927100D02*
Y945784D01*
X532638Y1195070D02*
X555260D01*
X518780D02*
X532638D01*
Y1196848D01*
Y1174424D02*
Y1195070D01*
X490220Y1187450D02*
X503936Y1201166D01*
X484520Y1181750D02*
X490220Y1187450D01*
X511160D01*
X472410D02*
X490220D01*
X572090Y834590D02*
X612900D01*
X558220Y820720D02*
X572090Y834590D01*
X498856Y895350D02*
X581406D01*
X493522Y890016D02*
X498856Y895350D01*
X493522Y883778D02*
Y890016D01*
X515302Y988568D02*
X567966D01*
X581428Y1002030D01*
X480111Y937931D02*
X481290Y939110D01*
X480111Y897189D02*
Y937931D01*
X536702Y1250950D02*
X540766Y1246886D01*
X360360Y1250950D02*
X536702D01*
X344720Y1266590D02*
X360360Y1250950D01*
X507900Y995970D02*
Y1012943D01*
X499594Y1021249D02*
X507900Y1012943D01*
X499594Y1021249D02*
Y1074135D01*
X514970Y1089510D01*
Y1097280D01*
X506970Y820720D02*
Y830312D01*
X546862Y870204D01*
X499872Y887730D02*
X503063Y890921D01*
X582319D01*
X613400Y859840D01*
X467214Y1052430D02*
X505714Y1090930D01*
X455980Y1052430D02*
X467214D01*
X404480Y927100D02*
X410266Y921314D01*
X344720Y859840D02*
X361442Y876562D01*
Y934720D01*
X395423Y968701D01*
X468924D01*
X470353Y967272D01*
X495848D01*
X499618Y971042D01*
X593758Y905232D02*
X613400Y885590D01*
X498094Y905232D02*
X593758D01*
X551298Y1043060D02*
X553212Y1041146D01*
X535512Y1043060D02*
X551298D01*
X530060Y1048512D02*
X535512Y1043060D01*
X530060Y1048512D02*
Y1059904D01*
X549148Y1078992D01*
X393446Y1223264D02*
X587756D01*
X372872Y1202690D02*
X393446Y1223264D01*
X341376Y1202690D02*
X372872D01*
X336804Y1198118D02*
X341376Y1202690D01*
X336804Y1173256D02*
Y1198118D01*
Y1173256D02*
X345220Y1164840D01*
X461964Y1022096D02*
X494284D01*
X344720Y1139340D02*
X461964Y1022096D01*
X442976Y902462D02*
X460248Y919734D01*
X476571D01*
Y943438D01*
X477520Y944388D01*
X554990D01*
X580882Y970280D01*
X621538D01*
Y1016000D01*
X616966Y1020572D02*
X621538Y1016000D01*
X557266Y1020572D02*
X616966D01*
X552694Y1025144D02*
X557266Y1020572D01*
X399288Y832216D02*
Y869696D01*
X389128Y822056D02*
X399288Y832216D01*
X389128Y810006D02*
Y822056D01*
Y810006D02*
X396240Y802894D01*
X574802D01*
X591820Y819912D01*
X592345Y916035D02*
X612900Y936590D01*
X489994Y916035D02*
X592345D01*
X512154Y1029687D02*
X600310D01*
X601472Y1028524D01*
X344720Y987340D02*
X356616Y999236D01*
X465836D01*
X490220Y974852D01*
X515112Y958850D02*
X530220D01*
X332486Y949606D02*
X344720Y961840D01*
X332486Y809752D02*
Y949606D01*
Y809752D02*
X341376Y800862D01*
X359918D01*
X392176Y833120D01*
X489204Y1003300D02*
X495300Y997204D01*
X349296Y1003300D02*
X489204D01*
X336680Y990684D02*
X349296Y1003300D01*
X336680Y983866D02*
Y990684D01*
Y983866D02*
X352806Y967740D01*
Y957072D02*
Y967740D01*
X336042Y940308D02*
X352806Y957072D01*
X336042Y919518D02*
Y940308D01*
Y919518D02*
X344720Y910840D01*
X609089Y1033529D02*
X613400Y1037840D01*
X531080Y1033529D02*
X609089D01*
X530805Y1033804D02*
X531080Y1033529D01*
X533146Y1037844D02*
X549418D01*
X550192Y1037069D01*
X560689D01*
X565528Y1041908D01*
X602234D01*
X621030Y1060704D01*
Y1080710D01*
X613400Y1088340D02*
X621030Y1080710D01*
X613400Y1139340D02*
X622046Y1147986D01*
Y1168908D01*
X583692Y1207262D02*
X622046Y1168908D01*
X471424Y1207262D02*
X583692D01*
X459689Y1195527D02*
X471424Y1207262D01*
X459689Y1129335D02*
Y1195527D01*
Y1129335D02*
X480314Y1108710D01*
X492116D01*
X492616Y1089914D02*
X496156Y1093454D01*
X461772Y1089914D02*
X492616D01*
X456149Y1095537D02*
X461772Y1089914D01*
X456149Y1095537D02*
Y1199607D01*
X467360Y1210818D01*
X591312D01*
X596392Y1205738D01*
X617728D01*
X625602Y1197864D01*
Y1137920D02*
Y1197864D01*
X618744Y1131062D02*
X625602Y1137920D01*
X608584Y1131062D02*
X618744D01*
X605360Y1134286D02*
X608584Y1131062D01*
X605360Y1134286D02*
Y1156299D01*
X613900Y1164840D01*
X565800Y927100D02*
X583580Y944880D01*
X623316D01*
X624586Y943610D01*
Y806958D02*
Y943610D01*
X599186Y781558D02*
X624586Y806958D01*
X436012Y781558D02*
X599186D01*
X425350Y792220D02*
X436012Y781558D01*
X526430Y1141730D02*
X549220Y1164519D01*
X522770Y1044170D02*
Y1091080D01*
X528970Y1097280D01*
X511048Y1055892D02*
Y1078672D01*
Y1055892D02*
X522770Y1044170D01*
X484520Y1141730D02*
Y1181750D01*
X503936Y1201166D02*
X528320D01*
X532638Y1196848D01*
X526430Y1168217D02*
X532638Y1174424D01*
X526430Y1141730D02*
Y1168217D01*
X612900Y809590D02*
X621030Y817720D01*
Y841248D01*
X615188Y847090D02*
X621030Y841248D01*
X609854Y847090D02*
X615188D01*
X569976Y886968D02*
X609854Y847090D01*
X523128Y886968D02*
X569976D01*
X513730Y877570D02*
X523128Y886968D01*
X418480Y836360D02*
Y877570D01*
X399850Y817730D02*
X418480Y836360D01*
X551800Y931784D02*
X555244Y935228D01*
X551800Y927100D02*
Y931784D01*
X555752Y870062D02*
X564530Y878840D01*
X555752Y865902D02*
Y870062D01*
X532638Y1246124D02*
X544068Y1234694D01*
X505714Y1246124D02*
X532638D01*
X404480Y877570D02*
Y883509D01*
X402290Y885698D02*
X404480Y883509D01*
X400050Y927100D02*
X404480D01*
X397510Y924560D02*
X400050Y927100D01*
X397510Y924052D02*
Y924560D01*
Y924052D02*
X402336Y919226D01*
X408178D01*
X495046Y901192D02*
X507492D01*
X485902Y910336D02*
X495046Y901192D01*
X485902Y910336D02*
Y919734D01*
X493268Y927100D01*
X498460D01*
X455280D02*
Y953628D01*
X459232Y957580D01*
X512460Y927100D02*
X526208Y940847D01*
X571633D01*
X581270Y950484D01*
X616474D01*
X625094Y959104D01*
Y1099058D01*
X622300Y1101852D02*
X625094Y1099058D01*
X544576Y1101852D02*
X622300D01*
X540258Y1106170D02*
X544576Y1101852D01*
X525272Y1025398D02*
X538330Y1012340D01*
X613400D01*
X511048Y967232D02*
Y971550D01*
X501468Y957652D02*
X511048Y967232D01*
X467240Y957652D02*
X501468D01*
X463272Y961620D02*
X467240Y957652D01*
X455192Y961620D02*
X463272D01*
X429054Y935482D02*
X455192Y961620D01*
X395478Y935482D02*
X429054D01*
X389382Y929386D02*
X395478Y935482D01*
X389382Y837184D02*
Y929386D01*
X378714Y826516D02*
X389382Y837184D01*
X338582Y826516D02*
X378714D01*
X336042Y829056D02*
X338582Y826516D01*
X336042Y829056D02*
Y876912D01*
X344720Y885590D01*
X514970Y1097280D02*
Y1111219D01*
X469250Y1097280D02*
X476540Y1104570D01*
X493776D01*
X496316Y1107110D01*
Y1111504D01*
X487680Y1120140D02*
X496316Y1111504D01*
X477529Y1120140D02*
X487680D01*
X463229Y1134440D02*
X477529Y1120140D01*
X463229Y1134440D02*
Y1149096D01*
X477154D01*
X484520Y1141730D01*
X579374Y1241090D02*
X613150D01*
X436260Y1089152D02*
Y1097280D01*
Y1089152D02*
X442864Y1082548D01*
X492326D01*
X500890Y1091112D01*
Y1093216D01*
X505207Y1097534D01*
X506984D01*
X437530Y1141730D02*
X444211D01*
X451612Y1134329D01*
X471424Y948436D02*
X473710D01*
X469280Y946292D02*
X471424Y948436D01*
X507722Y983210D02*
X514933Y976000D01*
X497840Y983210D02*
X507722D01*
X495578Y980948D02*
X497840Y983210D01*
X495578Y972106D02*
Y980948D01*
X494284Y970812D02*
X495578Y972106D01*
X486180Y970812D02*
X494284D01*
X461820Y995172D02*
X486180Y970812D01*
X402802Y995172D02*
X461820D01*
X344220Y936590D02*
X402802Y995172D01*
X511160Y1187450D02*
X518780Y1195070D01*
X512460Y927100D02*
X538480D01*
X544322Y921258D01*
X494034Y910840D02*
X613400D01*
X524002Y973328D02*
X561848D01*
X510540Y986790D02*
X524002Y973328D01*
X503936Y986790D02*
X510540D01*
X499364Y991362D02*
X503936Y986790D01*
X499364Y991362D02*
Y1007872D01*
X495046Y1012190D02*
X499364Y1007872D01*
X396619Y1012190D02*
X495046D01*
X344220Y1064590D02*
X396619Y1012190D01*
X348934Y1008126D02*
X489498D01*
X344720Y1012340D02*
X348934Y1008126D01*
X521900Y995970D02*
Y1009130D01*
X503658Y1027373D02*
X521900Y1009130D01*
X503658Y1027373D02*
Y1039059D01*
X508770Y1044170D01*
X484493Y1033665D02*
X492022Y1026136D01*
X456553Y1033665D02*
X484493D01*
X409640Y1080578D02*
X456553Y1033665D01*
X409640Y1080578D02*
Y1125670D01*
X344970Y1190340D02*
X409640Y1125670D01*
X429006Y1018032D02*
X489712D01*
X370586Y1076452D02*
X429006Y1018032D01*
X341376Y1076452D02*
X370586D01*
X336042Y1071118D02*
X341376Y1076452D01*
X336042Y1046518D02*
Y1071118D01*
Y1046518D02*
X344720Y1037840D01*
X524192Y979678D02*
X545220D01*
X576680Y974598D02*
X617220D01*
X550010Y947928D02*
X576680Y974598D01*
X469280Y945784D02*
X471424Y947928D01*
X553300Y1051150D02*
Y1081024D01*
X537044Y1097280D02*
X553300Y1081024D01*
X528970Y1097280D02*
X537044D01*
X594911Y1046600D02*
X612900Y1064590D01*
X541760Y1046600D02*
X594911D01*
X537210Y1051150D02*
X541760Y1046600D01*
X501142Y979170D02*
X506944Y973368D01*
Y972329D02*
Y973368D01*
X495808Y961192D02*
X506944Y972329D01*
X470780Y961192D02*
X495808D01*
X466812Y965160D02*
X470780Y961192D01*
X451652Y965160D02*
X466812D01*
X447612Y961120D02*
X451652Y965160D01*
X415782Y961120D02*
X447612D01*
X385064Y930402D02*
X415782Y961120D01*
X385064Y875434D02*
Y930402D01*
X344220Y834590D02*
X385064Y875434D01*
X550530Y874424D02*
Y878840D01*
Y874424D02*
X551158Y873796D01*
Y859514D02*
Y873796D01*
X545338Y853694D02*
X551158Y859514D01*
X545338Y818388D02*
Y853694D01*
X537010Y810060D02*
X545338Y818388D01*
X475180Y810060D02*
X537010D01*
X456692Y828548D02*
X475180Y810060D01*
X436168Y828548D02*
X456692D01*
X425350Y817730D02*
X436168Y828548D01*
X450850Y817730D02*
X462061Y806520D01*
X544019D01*
X558220Y820720D01*
X456550Y845891D02*
Y877570D01*
Y845891D02*
X481470Y820970D01*
X456550Y877570D02*
X463916Y870204D01*
X506364D01*
X513730Y877570D01*
X512430Y1141730D02*
Y1174719D01*
X525160Y1187450D01*
X470520Y1141730D02*
X477886Y1134364D01*
X505064D01*
X512430Y1141730D01*
Y1120648D02*
Y1141730D01*
Y1120648D02*
X514970Y1118108D01*
X526430Y1120648D02*
Y1141730D01*
Y1120648D02*
X528970Y1118108D01*
Y1097280D02*
Y1118108D01*
X418480Y927100D02*
X455280D01*
X418480Y877570D02*
Y927100D01*
Y877570D02*
X456550D01*
D19*
X501160Y1240970D02*
D03*
X456660D02*
D03*
D20*
X437660Y1271970D02*
D03*
X519910Y1271720D02*
D03*
D21*
X411230Y1052180D02*
D03*
X455980Y1052430D02*
D03*
Y980930D02*
D03*
X410980D02*
D03*
X506970Y820720D02*
D03*
X481470Y820970D02*
D03*
X532470Y820720D02*
D03*
X558220D02*
D03*
D22*
X344720Y1215340D02*
D03*
X344470Y1241090D02*
D03*
X344720Y1266590D02*
D03*
Y1114090D02*
D03*
Y1139340D02*
D03*
X344970Y1190340D02*
D03*
X345220Y1164840D02*
D03*
X344720Y961840D02*
D03*
Y1012340D02*
D03*
Y1037840D02*
D03*
Y1088340D02*
D03*
X344220Y1064590D02*
D03*
X344720Y910840D02*
D03*
X344220Y936590D02*
D03*
X344720Y987340D02*
D03*
Y859840D02*
D03*
Y885590D02*
D03*
X344220Y834590D02*
D03*
Y809590D02*
D03*
X344720Y784090D02*
D03*
X613400Y1215340D02*
D03*
X613150Y1241090D02*
D03*
X613400Y1266590D02*
D03*
Y1114090D02*
D03*
Y1139340D02*
D03*
X613650Y1190340D02*
D03*
X613900Y1164840D02*
D03*
X613400Y961840D02*
D03*
Y1012340D02*
D03*
Y1037840D02*
D03*
Y1088340D02*
D03*
X612900Y1064590D02*
D03*
X613400Y910840D02*
D03*
X612900Y936590D02*
D03*
X613400Y987340D02*
D03*
Y859840D02*
D03*
Y885590D02*
D03*
X612900Y834590D02*
D03*
Y809590D02*
D03*
X613400Y784090D02*
D03*
D23*
X450850Y817730D02*
D03*
Y792220D02*
D03*
X399850D02*
D03*
Y817730D02*
D03*
X425350D02*
D03*
Y792220D02*
D03*
D24*
X581406Y895350D02*
D03*
X581428Y1002030D02*
D03*
X481290Y939110D02*
D03*
X540766Y1246886D02*
D03*
X546862Y870204D02*
D03*
X499872Y887730D02*
D03*
X505714Y1090930D02*
D03*
X410266Y921314D02*
D03*
X499618Y971042D02*
D03*
X498094Y905232D02*
D03*
X553212Y1041146D02*
D03*
X549148Y1078992D02*
D03*
X587756Y1223264D02*
D03*
X494284Y1022096D02*
D03*
X442976Y902462D02*
D03*
X552694Y1025144D02*
D03*
X399288Y869696D02*
D03*
X591820Y819912D02*
D03*
X489994Y916035D02*
D03*
X512154Y1029687D02*
D03*
X601472Y1028524D02*
D03*
X490220Y974852D02*
D03*
X515112Y958850D02*
D03*
X530220D02*
D03*
X392176Y833120D02*
D03*
X495300Y997204D02*
D03*
X530805Y1033804D02*
D03*
X533146Y1037844D02*
D03*
X492116Y1108710D02*
D03*
X496156Y1093454D02*
D03*
X549220Y1164519D02*
D03*
X472410Y1187450D02*
D03*
X511048Y1078672D02*
D03*
X555244Y935228D02*
D03*
X555752Y865902D02*
D03*
X544068Y1234694D02*
D03*
X505714Y1246124D02*
D03*
X402290Y885698D02*
D03*
X408178Y919226D02*
D03*
X507492Y901192D02*
D03*
X459232Y957580D02*
D03*
X540258Y1106170D02*
D03*
X525272Y1025398D02*
D03*
X511048Y971550D02*
D03*
X514970Y1111219D02*
D03*
X579374Y1241090D02*
D03*
X506984Y1097534D02*
D03*
X451612Y1134329D02*
D03*
X473710Y948436D02*
D03*
X514933Y976000D02*
D03*
X555260Y1195070D02*
D03*
X544322Y921258D02*
D03*
X494034Y910840D02*
D03*
X561848Y973328D02*
D03*
X489498Y1008126D02*
D03*
X492022Y1026136D02*
D03*
X489712Y1018032D02*
D03*
X545220Y979678D02*
D03*
X617220Y974598D02*
D03*
X553300Y1051150D02*
D03*
X537210D02*
D03*
X501142Y979170D02*
D03*
M02*
