G04 Layer_Physical_Order=1*
G04 Layer_Color=255*
%FSLAX44Y44*%
%MOMM*%
G71*
G01*
G75*
%ADD10R,1.5240X1.5240*%
%ADD11R,0.3000X0.8000*%
%ADD12R,0.8000X0.3000*%
%ADD13R,0.5000X0.8000*%
%ADD14R,1.1000X1.8000*%
%ADD15R,0.8500X0.8500*%
%ADD16R,0.8500X0.8500*%
%ADD17C,0.1000*%
%ADD18C,0.2500*%
%ADD19C,0.5800*%
%ADD20R,0.6000X0.9000*%
%ADD21C,1.5240*%
%ADD22C,1.0000*%
%ADD23C,1.5200*%
%ADD24C,0.2000*%
D10*
X402290Y901871D02*
D03*
X552291D02*
D03*
D11*
X492410Y1233970D02*
D03*
X485660D02*
D03*
X479160D02*
D03*
X472410D02*
D03*
X465910D02*
D03*
X540220Y1071650D02*
D03*
X545220D02*
D03*
X535220D02*
D03*
X515220D02*
D03*
X520220D02*
D03*
X530220D02*
D03*
X525220D02*
D03*
X505220D02*
D03*
X510220D02*
D03*
X500220D02*
D03*
X495220D02*
D03*
X490220D02*
D03*
Y986150D02*
D03*
X495220D02*
D03*
X500220D02*
D03*
X510220D02*
D03*
X505220D02*
D03*
X525220D02*
D03*
X530220D02*
D03*
X520220D02*
D03*
X515220D02*
D03*
X535220D02*
D03*
X545220D02*
D03*
X540220D02*
D03*
D12*
X476470Y1056150D02*
D03*
Y1051150D02*
D03*
Y1046150D02*
D03*
Y1036150D02*
D03*
Y1041150D02*
D03*
Y1021150D02*
D03*
Y1016150D02*
D03*
Y1026150D02*
D03*
Y1031150D02*
D03*
Y1011150D02*
D03*
Y1001150D02*
D03*
Y1006150D02*
D03*
X559220D02*
D03*
Y1001150D02*
D03*
Y1011150D02*
D03*
Y1031150D02*
D03*
Y1026150D02*
D03*
Y1016150D02*
D03*
Y1021150D02*
D03*
Y1041150D02*
D03*
Y1036150D02*
D03*
Y1046150D02*
D03*
Y1051150D02*
D03*
Y1056150D02*
D03*
D13*
X564760Y1217380D02*
D03*
X545760D02*
D03*
X555260D02*
D03*
X564760Y1242380D02*
D03*
X545760D02*
D03*
D14*
X466292Y941071D02*
D03*
X491291D02*
D03*
D15*
X406400Y1148700D02*
D03*
Y1162700D02*
D03*
X452120Y1148700D02*
D03*
Y1162700D02*
D03*
X494030Y1148700D02*
D03*
Y1162700D02*
D03*
X417790Y1200930D02*
D03*
Y1214930D02*
D03*
X534670Y1144920D02*
D03*
Y1130920D02*
D03*
X393580Y1200930D02*
D03*
Y1214930D02*
D03*
X560070Y1130920D02*
D03*
Y1144920D02*
D03*
D16*
X549220Y1184990D02*
D03*
X563220D02*
D03*
D17*
X542544Y1241044D02*
X545760D01*
X581428Y1043681D02*
X589534Y1035576D01*
Y857956D02*
X612900Y834590D01*
X581406Y866084D02*
X589534Y857956D01*
X514970Y1111219D02*
X534670Y1130920D01*
X505149Y1101399D02*
X514970Y1111219D01*
X545108Y1074952D02*
X545220D01*
X537506Y1064514D02*
X540512D01*
X491291Y941324D02*
X496848D01*
X483616Y982432D02*
X490220D01*
X400304Y901871D02*
Y1004316D01*
X555260Y1195070D02*
Y1217380D01*
Y1191031D02*
Y1195070D01*
X465910Y1211072D02*
Y1233932D01*
X344470Y1239266D02*
X427228D01*
X432562Y1233932D02*
X465910D01*
X545760Y1223940D02*
Y1233002D01*
X399034Y1156066D02*
X406400Y1148700D01*
X386080Y1169020D02*
X399034Y1156066D01*
X581406Y866084D02*
Y895350D01*
X581428Y1002030D02*
Y1043681D01*
X568960Y1056150D02*
X581428Y1043681D01*
X559220Y1056150D02*
X568960D01*
X476052Y1001150D02*
X476470D01*
X471358Y996456D02*
X476052Y1001150D01*
X471358Y964202D02*
Y996456D01*
Y964202D02*
X481290Y954270D01*
Y939110D02*
Y954270D01*
X540766Y1242380D02*
X545760D01*
X540766D02*
Y1246886D01*
X546862Y870204D02*
X563118Y886460D01*
Y963953D01*
X557808Y969263D02*
X563118Y963953D01*
X557808Y969263D02*
Y993694D01*
X562242Y998128D01*
X559220Y1001150D02*
X562242Y998128D01*
X421894Y1018344D02*
X455980Y1052430D01*
X421894Y976376D02*
Y1018344D01*
X404114Y958596D02*
X421894Y976376D01*
X404114Y915924D02*
Y958596D01*
Y915924D02*
X406400Y913638D01*
X447371D01*
X473279Y887730D01*
X499872D01*
X515220Y1071650D02*
Y1081424D01*
X505714Y1090930D02*
X515220Y1081424D01*
X530220Y1071650D02*
Y1081753D01*
X568581Y1120114D01*
X570901D01*
Y1122434D01*
X575056Y1126589D01*
Y1264666D01*
X585160Y1274770D01*
X618800D01*
X621538Y1272032D01*
Y1198228D02*
Y1272032D01*
X613650Y1190340D02*
X621538Y1198228D01*
X591312Y1072896D02*
Y1193252D01*
X540512Y1064514D02*
X582930D01*
X536702Y1060704D02*
X540512Y1064514D01*
X470924Y1060704D02*
X536702D01*
X466860Y1056640D02*
X470924Y1060704D01*
X466860Y1045980D02*
Y1056640D01*
X429006Y1008126D02*
X466860Y1045980D01*
X429006Y940054D02*
Y1008126D01*
X410266Y921314D02*
X429006Y940054D01*
X499618Y971042D02*
X505220Y976644D01*
Y986150D01*
X498094Y905232D02*
Y922528D01*
X491591Y929031D02*
X498094Y922528D01*
X477980Y929031D02*
X491591D01*
X474832Y932179D02*
X477980Y929031D01*
X474832Y932179D02*
Y941477D01*
X477750Y944396D01*
Y952468D01*
X477107Y953112D02*
X477750Y952468D01*
X455168Y953112D02*
X477107D01*
X445262Y963018D02*
X455168Y953112D01*
X445262Y963018D02*
Y991616D01*
X464796Y1011150D01*
X476470D01*
X553216Y1041150D02*
X559220D01*
X553212Y1041146D02*
X553216Y1041150D01*
X549148Y1078992D02*
X553974D01*
X587756Y1112774D01*
Y1223264D01*
X552196Y1031150D02*
X559220D01*
X534945Y1013899D02*
X552196Y1031150D01*
X514604Y1013899D02*
X534945D01*
X511927Y1016576D02*
X514604Y1013899D01*
X499804Y1016576D02*
X511927D01*
X494284Y1022096D02*
X499804Y1016576D01*
X344720Y1114090D02*
X350220D01*
X352806Y1111504D01*
Y1006856D02*
Y1111504D01*
X336550Y990600D02*
X352806Y1006856D01*
X336550Y950722D02*
Y990600D01*
Y950722D02*
X341376Y945896D01*
X376682D01*
X387350Y935228D01*
Y891366D02*
Y935228D01*
Y891366D02*
X397336Y881380D01*
X421894D01*
X442976Y902462D01*
X552694Y1025144D02*
X553700Y1026150D01*
X559220D01*
X332994Y1076613D02*
X344720Y1088340D01*
X332994Y935990D02*
Y1076613D01*
Y935990D02*
X399288Y869696D01*
X551688Y860044D02*
X591820Y819912D01*
X551688Y860044D02*
Y869442D01*
X570087Y887841D01*
Y1019556D01*
X568493Y1021150D02*
X570087Y1019556D01*
X559220Y1021150D02*
X568493D01*
X486871Y919158D02*
X489994Y916035D01*
X456506Y919158D02*
X486871D01*
X433832Y941832D02*
X456506Y919158D01*
X433832Y941832D02*
Y1007872D01*
X452110Y1026150D01*
X476470D01*
Y1031150D02*
X510690D01*
X512154Y1029687D01*
X601472Y973768D02*
Y1028524D01*
Y973768D02*
X613400Y961840D01*
X490220Y972566D02*
Y974852D01*
Y972566D02*
X497586Y965200D01*
X508762D01*
X515112Y958850D01*
X530220D02*
Y986150D01*
X392176Y833120D02*
X499110D01*
X525220Y859230D01*
Y986150D01*
X515220D02*
Y991616D01*
X509632Y997204D02*
X515220Y991616D01*
X495300Y997204D02*
X509632D01*
X518459Y1046150D02*
X530805Y1033804D01*
X476470Y1046150D02*
X518459D01*
X476470Y1056150D02*
X540290D01*
X541250Y1055190D01*
Y1045948D02*
Y1055190D01*
X533146Y1037844D02*
X541250Y1045948D01*
X492116Y1082305D02*
Y1108710D01*
Y1082305D02*
X495220Y1079200D01*
Y1071650D02*
Y1079200D01*
X500220Y1071650D02*
Y1081281D01*
X496156Y1085345D02*
X500220Y1081281D01*
X496156Y1085345D02*
Y1093454D01*
X479160Y1251720D02*
X487026Y1259586D01*
X503936D01*
X513294Y1250228D01*
Y1153383D02*
Y1250228D01*
X501320Y1141410D02*
X513294Y1153383D01*
X487239Y1141410D02*
X501320D01*
X479948Y1148700D02*
X487239Y1141410D01*
X452120Y1148700D02*
X479948D01*
X564760Y1233052D02*
Y1242380D01*
Y1233052D02*
X571500Y1226312D01*
Y1193270D02*
Y1226312D01*
X563220Y1184990D02*
X571500Y1193270D01*
X549220Y1164519D02*
Y1184990D01*
X472410Y1187450D02*
Y1233970D01*
X549220Y1184990D02*
X555260Y1191031D01*
X510220Y1071650D02*
Y1077844D01*
X511048Y1078672D01*
X471424Y1006150D02*
X476470D01*
X455980Y990706D02*
X471424Y1006150D01*
X455980Y980930D02*
Y990706D01*
X476470Y1021150D02*
X481514D01*
X485164Y1017500D01*
Y1005701D02*
Y1017500D01*
Y1005701D02*
X487680Y1003185D01*
X495161D01*
X497201Y1001145D01*
X542921D01*
X554268Y989798D01*
Y936204D02*
Y989798D01*
Y936204D02*
X555244Y935228D01*
X555752Y865902D02*
X573628Y883777D01*
Y1027418D01*
X564896Y1036150D02*
X573628Y1027418D01*
X559220Y1036150D02*
X564896D01*
X399034Y1156066D02*
Y1168400D01*
X401066Y1170432D01*
X468122D01*
X492410Y1194720D01*
Y1233970D01*
X494030Y1148700D02*
X507238Y1161908D01*
Y1239544D01*
X509754Y1242060D01*
Y1247926D01*
X501650Y1256030D02*
X509754Y1247926D01*
X489970Y1256030D02*
X501650D01*
X485660Y1251720D02*
X489970Y1256030D01*
X545760Y1241044D02*
Y1242380D01*
X540004Y1238504D02*
X542544Y1241044D01*
X540004Y1166876D02*
Y1238504D01*
Y1166876D02*
X542036Y1164844D01*
Y1138286D02*
Y1164844D01*
X534670Y1130920D02*
X542036Y1138286D01*
X544068Y1234694D02*
X545760Y1233002D01*
X500118Y1251720D02*
X505714Y1246124D01*
X492160Y1251720D02*
X500118D01*
X417790Y1200930D02*
X455768D01*
X465910Y1211072D01*
X344470Y1239266D02*
Y1241090D01*
X427228Y1239266D02*
X432562Y1233932D01*
X465910D02*
Y1233970D01*
X402290Y885698D02*
Y901871D01*
X577168Y845322D02*
X612900Y809590D01*
X577168Y845322D02*
Y1039034D01*
X565052Y1051150D02*
X577168Y1039034D01*
X559220Y1051150D02*
X565052D01*
X408178Y919226D02*
X451432D01*
X455039Y915618D01*
X478866D01*
X494308Y900176D01*
X501420D01*
X503452Y902208D01*
Y934720D01*
X496848Y941324D02*
X503452Y934720D01*
X491291Y941071D02*
Y941324D01*
X402290Y901871D02*
X424688D01*
X430867Y908050D01*
X447040D01*
X471400Y883690D01*
X503912D01*
X507492Y887270D01*
Y901192D01*
X459232Y957580D02*
Y977678D01*
X455980Y980930D02*
X459232Y977678D01*
X525220Y1091132D02*
X540258Y1106170D01*
X525220Y1071650D02*
Y1091132D01*
X476470Y1041150D02*
X514799D01*
X525272Y1030677D01*
Y1025398D02*
Y1030677D01*
X510220Y972378D02*
Y986150D01*
Y972378D02*
X511048Y971550D01*
X540220Y1071650D02*
Y1085050D01*
X571381Y1116211D01*
X574803D01*
Y1119633D01*
X579374Y1124204D01*
Y1241090D01*
X545220Y1071650D02*
Y1074952D01*
X545108D02*
Y1082690D01*
X574433Y1112015D01*
X578999D01*
Y1116581D01*
X583692Y1121274D01*
Y1236882D01*
X613400Y1266590D01*
X505220Y1071650D02*
Y1082468D01*
X501647Y1086041D02*
X505220Y1082468D01*
X501647Y1086041D02*
Y1100229D01*
X502817Y1101399D01*
X505149D01*
X506984Y1097534D02*
X514604D01*
X528320Y1111250D01*
X552958D01*
X565404Y1123696D01*
X567436D01*
Y1137554D01*
X560070Y1144920D02*
X567436Y1137554D01*
X613400Y1114090D02*
X625094Y1125784D01*
Y1276096D01*
X622808Y1278382D02*
X625094Y1276096D01*
X541274Y1278382D02*
X622808D01*
X523748Y1260856D02*
X541274Y1278382D01*
X523748Y1148350D02*
Y1260856D01*
X513267Y1137869D02*
X523748Y1148350D01*
X483199Y1137869D02*
X513267D01*
X481098Y1139971D02*
X483199Y1137869D01*
X449599Y1139971D02*
X481098D01*
X447548Y1137920D02*
X449599Y1139971D01*
X447548Y1121664D02*
Y1137920D01*
Y1121664D02*
X490220Y1078992D01*
Y1071650D02*
Y1078992D01*
X451612Y1134329D02*
X524079D01*
X534670Y1144920D01*
X490220Y982432D02*
Y986150D01*
X478576Y977392D02*
X483616Y982432D01*
X478576Y965779D02*
Y977392D01*
Y965779D02*
X488497Y955857D01*
X495944D01*
X512334Y939468D01*
Y878856D02*
Y939468D01*
X482854Y849376D02*
X512334Y878856D01*
X337312Y849376D02*
X482854D01*
X332486Y844550D02*
X337312Y849376D01*
X332486Y796324D02*
Y844550D01*
Y796324D02*
X344720Y784090D01*
X466292Y941071D02*
X466345D01*
X473710Y948436D01*
X344220Y809590D02*
X378164Y843534D01*
X490518D01*
X520943Y873959D01*
Y943008D01*
X504553Y959398D02*
X520943Y943008D01*
X493776Y959398D02*
X504553D01*
X484632Y968542D02*
X493776Y959398D01*
X484632Y968542D02*
Y975844D01*
X487680Y978892D01*
X495220D01*
Y986150D01*
X532470Y820720D02*
Y925609D01*
X535220Y928359D01*
Y986150D01*
X520220Y981287D02*
Y986150D01*
X514933Y976000D02*
X520220Y981287D01*
X592198Y809590D02*
X612900D01*
X540220Y861568D02*
X592198Y809590D01*
X540220Y861568D02*
Y986150D01*
X544322Y909840D02*
Y921258D01*
Y909840D02*
X552291Y901871D01*
X449984Y1016150D02*
X476470D01*
X441706Y1007872D02*
X449984Y1016150D01*
X441706Y939292D02*
Y1007872D01*
Y939292D02*
X458299Y922699D01*
X492071D01*
X494034Y920735D01*
Y910840D02*
Y920735D01*
X559220Y1016150D02*
X566420D01*
X566547Y1016023D01*
Y996887D02*
Y1016023D01*
X564832Y995172D02*
X566547Y996887D01*
X564832Y976312D02*
Y995172D01*
X561848Y973328D02*
X564832Y976312D01*
X503991Y1006150D02*
X559220D01*
X502015Y1008126D02*
X503991Y1006150D01*
X489498Y1008126D02*
X502015D01*
X476470Y1036150D02*
X511409D01*
X516194Y1031365D01*
Y1026545D02*
Y1031365D01*
Y1026545D02*
X521558Y1021182D01*
X528050D01*
X545099Y1038231D01*
Y1052845D01*
X552958Y1060704D01*
X605282D01*
X621538Y1044448D01*
Y995478D02*
Y1044448D01*
X613400Y987340D02*
X621538Y995478D01*
X549148Y1046150D02*
X559220D01*
X549148Y1035632D02*
Y1046150D01*
X530955Y1017439D02*
X549148Y1035632D01*
X519598Y1017439D02*
X530955D01*
X516751Y1020286D02*
X519598Y1017439D01*
X504174Y1020286D02*
X516751D01*
X498324Y1026136D02*
X504174Y1020286D01*
X492022Y1026136D02*
X498324D01*
X554204Y1011150D02*
X559220D01*
X552958Y1009904D02*
X554204Y1011150D01*
X505714Y1009904D02*
X552958D01*
X503936Y1011682D02*
X505714Y1009904D01*
X496062Y1011682D02*
X503936D01*
X489712Y1018032D02*
X496062Y1011682D01*
X545220Y979678D02*
Y986150D01*
X605282Y1181972D02*
X613650Y1190340D01*
X605282Y1083818D02*
Y1181972D01*
Y1083818D02*
X625094Y1064006D01*
Y982472D02*
Y1064006D01*
X617220Y974598D02*
X625094Y982472D01*
X553300Y1051150D02*
X559220D01*
X476470D02*
X537210D01*
X500220Y980092D02*
Y986150D01*
Y980092D02*
X501142Y979170D01*
X400304Y901871D02*
X402290D01*
X400304Y1004316D02*
X423418Y1027430D01*
Y1056640D01*
X431038Y1064260D01*
X518160D01*
X520220Y1066320D01*
Y1071650D01*
X591312Y1193252D02*
X613400Y1215340D01*
X582930Y1064514D02*
X591312Y1072896D01*
X535220Y1066800D02*
X537506Y1064514D01*
X535220Y1066800D02*
Y1071650D01*
X589534Y857956D02*
Y1035576D01*
X545760Y1217380D02*
Y1223940D01*
X548640Y1226820D01*
X561204D01*
X564760Y1223264D01*
Y1217380D02*
Y1223264D01*
X492410Y1233970D02*
Y1236970D01*
X492160Y1237220D02*
X492410Y1236970D01*
X472410Y1233970D02*
Y1237220D01*
X465910Y1233970D02*
Y1236970D01*
X466160Y1237220D01*
X485660Y1233970D02*
Y1237220D01*
X479160Y1233970D02*
Y1237220D01*
X344720Y987340D02*
X376682Y1019302D01*
Y1104138D01*
X413766Y1141222D01*
Y1155334D01*
X406400Y1162700D02*
X413766Y1155334D01*
X386080Y1207430D02*
X393580Y1214930D01*
X386080Y1169020D02*
Y1207430D01*
X466160Y1251720D02*
X472410D01*
X450850Y792220D02*
Y817730D01*
X534670Y1130920D02*
X560070D01*
X406400Y1162700D02*
X452120D01*
X393580Y1200930D02*
X417790D01*
X612900Y797044D02*
Y809590D01*
Y797044D02*
X613400Y796544D01*
Y784090D02*
Y796544D01*
X399850Y792220D02*
Y817730D01*
X369217Y1214930D02*
X393580D01*
X368808Y1215340D02*
X369217Y1214930D01*
X344720Y1215340D02*
X368808D01*
D18*
X485660Y1237220D02*
Y1251720D01*
X492160Y1237220D02*
Y1251720D01*
X479160Y1237220D02*
Y1251720D01*
X472410Y1237220D02*
Y1251720D01*
X466160Y1237220D02*
Y1251720D01*
D19*
X501160Y1240970D02*
D03*
X456660D02*
D03*
D20*
X437660Y1271970D02*
D03*
X519910Y1271720D02*
D03*
D21*
X411230Y1052180D02*
D03*
X455980Y1052430D02*
D03*
Y980930D02*
D03*
X410980D02*
D03*
X506970Y820720D02*
D03*
X481470Y820970D02*
D03*
X532470Y820720D02*
D03*
X558220D02*
D03*
D22*
X344720Y1215340D02*
D03*
X344470Y1241090D02*
D03*
X344720Y1266590D02*
D03*
Y1114090D02*
D03*
Y1139340D02*
D03*
X344970Y1190340D02*
D03*
X345220Y1164840D02*
D03*
X344720Y961840D02*
D03*
Y1012340D02*
D03*
Y1037840D02*
D03*
Y1088340D02*
D03*
X344220Y1064590D02*
D03*
X344720Y910840D02*
D03*
X344220Y936590D02*
D03*
X344720Y987340D02*
D03*
Y859840D02*
D03*
Y885590D02*
D03*
X344220Y834590D02*
D03*
Y809590D02*
D03*
X344720Y784090D02*
D03*
X613400Y1215340D02*
D03*
X613150Y1241090D02*
D03*
X613400Y1266590D02*
D03*
Y1114090D02*
D03*
Y1139340D02*
D03*
X613650Y1190340D02*
D03*
X613900Y1164840D02*
D03*
X613400Y961840D02*
D03*
Y1012340D02*
D03*
Y1037840D02*
D03*
Y1088340D02*
D03*
X612900Y1064590D02*
D03*
X613400Y910840D02*
D03*
X612900Y936590D02*
D03*
X613400Y987340D02*
D03*
Y859840D02*
D03*
Y885590D02*
D03*
X612900Y834590D02*
D03*
Y809590D02*
D03*
X613400Y784090D02*
D03*
D23*
X450850Y817730D02*
D03*
Y792220D02*
D03*
X399850D02*
D03*
Y817730D02*
D03*
X425350D02*
D03*
Y792220D02*
D03*
D24*
X581406Y895350D02*
D03*
X581428Y1002030D02*
D03*
X481290Y939110D02*
D03*
X540766Y1246886D02*
D03*
X546862Y870204D02*
D03*
X499872Y887730D02*
D03*
X505714Y1090930D02*
D03*
X410266Y921314D02*
D03*
X499618Y971042D02*
D03*
X498094Y905232D02*
D03*
X553212Y1041146D02*
D03*
X549148Y1078992D02*
D03*
X587756Y1223264D02*
D03*
X494284Y1022096D02*
D03*
X442976Y902462D02*
D03*
X552694Y1025144D02*
D03*
X399288Y869696D02*
D03*
X591820Y819912D02*
D03*
X489994Y916035D02*
D03*
X512154Y1029687D02*
D03*
X601472Y1028524D02*
D03*
X490220Y974852D02*
D03*
X515112Y958850D02*
D03*
X530220D02*
D03*
X392176Y833120D02*
D03*
X495300Y997204D02*
D03*
X530805Y1033804D02*
D03*
X533146Y1037844D02*
D03*
X492116Y1108710D02*
D03*
X496156Y1093454D02*
D03*
X549220Y1164519D02*
D03*
X472410Y1187450D02*
D03*
X511048Y1078672D02*
D03*
X555244Y935228D02*
D03*
X555752Y865902D02*
D03*
X544068Y1234694D02*
D03*
X505714Y1246124D02*
D03*
X402290Y885698D02*
D03*
X408178Y919226D02*
D03*
X507492Y901192D02*
D03*
X459232Y957580D02*
D03*
X540258Y1106170D02*
D03*
X525272Y1025398D02*
D03*
X511048Y971550D02*
D03*
X514970Y1111219D02*
D03*
X579374Y1241090D02*
D03*
X506984Y1097534D02*
D03*
X451612Y1134329D02*
D03*
X473710Y948436D02*
D03*
X514933Y976000D02*
D03*
X555260Y1195070D02*
D03*
X544322Y921258D02*
D03*
X494034Y910840D02*
D03*
X561848Y973328D02*
D03*
X489498Y1008126D02*
D03*
X492022Y1026136D02*
D03*
X489712Y1018032D02*
D03*
X545220Y979678D02*
D03*
X617220Y974598D02*
D03*
X553300Y1051150D02*
D03*
X537210D02*
D03*
X501142Y979170D02*
D03*
M02*
