G04 Layer_Color=32896*
%FSLAX44Y44*%
%MOMM*%
G71*
G01*
G75*
%ADD25C,0.2000*%
%ADD26C,0.1600*%
D25*
X533430Y1134730D02*
Y1148730D01*
X505430Y1134730D02*
Y1148730D01*
X533430D01*
X505430Y1134730D02*
X533430D01*
X504160Y1180450D02*
Y1194450D01*
X532160Y1180450D02*
Y1194450D01*
X504160Y1180450D02*
X532160D01*
X504160Y1194450D02*
X532160D01*
X462250Y1090280D02*
Y1104280D01*
X490250Y1090280D02*
Y1104280D01*
X462250Y1090280D02*
X490250D01*
X462250Y1104280D02*
X490250D01*
X535970Y1090280D02*
Y1104280D01*
X507970Y1090280D02*
Y1104280D01*
X535970D01*
X507970Y1090280D02*
X535970D01*
X444530Y1134730D02*
Y1148730D01*
X416530Y1134730D02*
Y1148730D01*
X444530D01*
X416530Y1134730D02*
X444530D01*
X443260Y1090280D02*
Y1104280D01*
X415260Y1090280D02*
Y1104280D01*
X443260D01*
X415260Y1090280D02*
X443260D01*
X572800Y920100D02*
Y934100D01*
X544800Y920100D02*
Y934100D01*
X572800D01*
X544800Y920100D02*
X572800D01*
X571530Y871840D02*
Y885840D01*
X543530Y871840D02*
Y885840D01*
X571530D01*
X543530Y871840D02*
X571530D01*
X491460Y920100D02*
Y934100D01*
X519460Y920100D02*
Y934100D01*
X491460Y920100D02*
X519460D01*
X491460Y934100D02*
X519460D01*
X425480Y870570D02*
Y884570D01*
X397480Y870570D02*
Y884570D01*
X425480D01*
X397480Y870570D02*
X425480D01*
X449550D02*
Y884570D01*
X477550Y870570D02*
Y884570D01*
X449550Y870570D02*
X477550D01*
X449550Y884570D02*
X477550D01*
X425480Y920100D02*
Y934100D01*
X397480Y920100D02*
Y934100D01*
X425480D01*
X397480Y920100D02*
X425480D01*
X448280D02*
Y934100D01*
X476280Y920100D02*
Y934100D01*
X448280Y920100D02*
X476280D01*
X448280Y934100D02*
X476280D01*
X520730Y870570D02*
Y884570D01*
X492730Y870570D02*
Y884570D01*
X520730D01*
X492730Y870570D02*
X520730D01*
X529770Y1037170D02*
Y1051170D01*
X501770Y1037170D02*
Y1051170D01*
X529770D01*
X501770Y1037170D02*
X529770D01*
X528900Y988970D02*
Y1002970D01*
X500900Y988970D02*
Y1002970D01*
X528900D01*
X500900Y988970D02*
X528900D01*
X491520Y1134730D02*
Y1148730D01*
X463520Y1134730D02*
Y1148730D01*
X491520D01*
X463520Y1134730D02*
X491520D01*
D26*
X514194Y899800D02*
X515694Y901299D01*
X518693D01*
X520192Y899800D01*
Y893801D01*
X518693Y892302D01*
X515694D01*
X514194Y893801D01*
X511195Y892302D02*
X508196D01*
X509695D01*
Y901299D01*
X511195Y899800D01*
X523234Y1066400D02*
X524734Y1067899D01*
X527733D01*
X529232Y1066400D01*
Y1060402D01*
X527733Y1058902D01*
X524734D01*
X523234Y1060402D01*
X514237Y1058902D02*
X520235D01*
X514237Y1064900D01*
Y1066400D01*
X515736Y1067899D01*
X518735D01*
X520235Y1066400D01*
X526894Y1163960D02*
X528394Y1165459D01*
X531393D01*
X532892Y1163960D01*
Y1157962D01*
X531393Y1156462D01*
X528394D01*
X526894Y1157962D01*
X523895Y1163960D02*
X522395Y1165459D01*
X519396D01*
X517897Y1163960D01*
Y1162460D01*
X519396Y1160960D01*
X520896D01*
X519396D01*
X517897Y1159461D01*
Y1157962D01*
X519396Y1156462D01*
X522395D01*
X523895Y1157962D01*
X525624Y1209680D02*
X527123Y1211179D01*
X530122D01*
X531622Y1209680D01*
Y1203681D01*
X530122Y1202182D01*
X527123D01*
X525624Y1203681D01*
X518126Y1202182D02*
Y1211179D01*
X522625Y1206681D01*
X516627D01*
X484984Y1163960D02*
X486483Y1165459D01*
X489482D01*
X490982Y1163960D01*
Y1157962D01*
X489482Y1156462D01*
X486483D01*
X484984Y1157962D01*
X481985Y1163960D02*
X480485Y1165459D01*
X477486D01*
X475987Y1163960D01*
Y1162460D01*
X477486Y1160960D01*
X475987Y1159461D01*
Y1157962D01*
X477486Y1156462D01*
X480485D01*
X481985Y1157962D01*
Y1159461D01*
X480485Y1160960D01*
X481985Y1162460D01*
Y1163960D01*
X480485Y1160960D02*
X477486D01*
X418944Y949330D02*
X420443Y950829D01*
X423442D01*
X424942Y949330D01*
Y943332D01*
X423442Y941832D01*
X420443D01*
X418944Y943332D01*
X415945D02*
X414445Y941832D01*
X411446D01*
X409947Y943332D01*
Y949330D01*
X411446Y950829D01*
X414445D01*
X415945Y949330D01*
Y947830D01*
X414445Y946330D01*
X409947D01*
X483714Y1119510D02*
X485214Y1121009D01*
X488213D01*
X489712Y1119510D01*
Y1113512D01*
X488213Y1112012D01*
X485214D01*
X483714Y1113512D01*
X480715Y1112012D02*
X477716D01*
X479215D01*
Y1121009D01*
X480715Y1119510D01*
X473217D02*
X471718Y1121009D01*
X468719D01*
X467219Y1119510D01*
Y1113512D01*
X468719Y1112012D01*
X471718D01*
X473217Y1113512D01*
Y1119510D01*
X529434D02*
X530933Y1121009D01*
X533932D01*
X535432Y1119510D01*
Y1113512D01*
X533932Y1112012D01*
X530933D01*
X529434Y1113512D01*
X526435Y1112012D02*
X523436D01*
X524935D01*
Y1121009D01*
X526435Y1119510D01*
X518937Y1112012D02*
X515938D01*
X517438D01*
Y1121009D01*
X518937Y1119510D01*
X469744Y949330D02*
X471244Y950829D01*
X474243D01*
X475742Y949330D01*
Y943332D01*
X474243Y941832D01*
X471244D01*
X469744Y943332D01*
X466745Y941832D02*
X463746D01*
X465245D01*
Y950829D01*
X466745Y949330D01*
X453249Y941832D02*
X459247D01*
X453249Y947830D01*
Y949330D01*
X454749Y950829D01*
X457748D01*
X459247Y949330D01*
X471014Y899800D02*
X472514Y901299D01*
X475513D01*
X477012Y899800D01*
Y893801D01*
X475513Y892302D01*
X472514D01*
X471014Y893801D01*
X468015Y892302D02*
X465016D01*
X466515D01*
Y901299D01*
X468015Y899800D01*
X460517D02*
X459018Y901299D01*
X456019D01*
X454519Y899800D01*
Y898300D01*
X456019Y896801D01*
X457518D01*
X456019D01*
X454519Y895301D01*
Y893801D01*
X456019Y892302D01*
X459018D01*
X460517Y893801D01*
X418944Y899800D02*
X420443Y901299D01*
X423442D01*
X424942Y899800D01*
Y893801D01*
X423442Y892302D01*
X420443D01*
X418944Y893801D01*
X415945Y892302D02*
X412946D01*
X414445D01*
Y901299D01*
X415945Y899800D01*
X403949Y892302D02*
Y901299D01*
X408447Y896801D01*
X402449D01*
X442722Y1112012D02*
Y1121009D01*
X438223D01*
X436724Y1119510D01*
Y1116510D01*
X438223Y1115011D01*
X442722D01*
X439723D02*
X436724Y1112012D01*
X433725D02*
X430726D01*
X432225D01*
Y1121009D01*
X433725Y1119510D01*
X528362Y1010702D02*
Y1019699D01*
X523863D01*
X522364Y1018200D01*
Y1015201D01*
X523863Y1013701D01*
X528362D01*
X525363D02*
X522364Y1010702D01*
X513367D02*
X519365D01*
X513367Y1016700D01*
Y1018200D01*
X514866Y1019699D01*
X517865D01*
X519365Y1018200D01*
X570992Y893572D02*
Y902569D01*
X566493D01*
X564994Y901070D01*
Y898071D01*
X566493Y896571D01*
X570992D01*
X567993D02*
X564994Y893572D01*
X561995Y901070D02*
X560495Y902569D01*
X557496D01*
X555997Y901070D01*
Y899570D01*
X557496Y898071D01*
X558996D01*
X557496D01*
X555997Y896571D01*
Y895071D01*
X557496Y893572D01*
X560495D01*
X561995Y895071D01*
X572262Y941832D02*
Y950829D01*
X567763D01*
X566264Y949330D01*
Y946330D01*
X567763Y944831D01*
X572262D01*
X569263D02*
X566264Y941832D01*
X558766D02*
Y950829D01*
X563265Y946330D01*
X557267D01*
X443992Y1156462D02*
Y1165459D01*
X439493D01*
X437994Y1163960D01*
Y1160960D01*
X439493Y1159461D01*
X443992D01*
X440993D02*
X437994Y1156462D01*
X428997Y1165459D02*
X434995D01*
Y1160960D01*
X431996Y1162460D01*
X430496D01*
X428997Y1160960D01*
Y1157962D01*
X430496Y1156462D01*
X433495D01*
X434995Y1157962D01*
X518922Y941832D02*
Y950829D01*
X514423D01*
X512924Y949330D01*
Y946330D01*
X514423Y944831D01*
X518922D01*
X515923D02*
X512924Y941832D01*
X503927Y950829D02*
X506926Y949330D01*
X509925Y946330D01*
Y943332D01*
X508425Y941832D01*
X505426D01*
X503927Y943332D01*
Y944831D01*
X505426Y946330D01*
X509925D01*
M02*
